/* XPM */
static char *backpack1646671133[] = {
/* columns rows colors chars-per-pixel */
"64 64 137 2 ",
"   c None",
".  c #390D00",
"X  c #3B1406",
"o  c #35160A",
"O  c #39170B",
"+  c #37190C",
"@  c #3C1B0D",
"#  c #431D0E",
"$  c #481F0F",
"%  c #501F0B",
"&  c #441F10",
"*  c #4A1F10",
"=  c #45200F",
"-  c #48200F",
";  c #54210E",
":  c #58230E",
">  c #452112",
",  c #4B2212",
"<  c #462B1F",
"1  c #532513",
"2  c #582713",
"3  c #562815",
"4  c #5B2916",
"5  c #552B1A",
"6  c #5C2C19",
"7  c #5F301B",
"8  c #612610",
"9  c #612B16",
"0  c #6A2E17",
"q  c #632E1A",
"w  c #64321C",
"e  c #6C331D",
"r  c #6E391D",
"t  c #72351E",
"y  c #75381F",
"u  c #783B1F",
"i  c #4A2E24",
"p  c #553325",
"a  c #5C3726",
"s  c #54352A",
"d  c #5D392B",
"f  c #523D36",
"g  c #533F39",
"h  c #643621",
"j  c #6B3620",
"k  c #643922",
"l  c #6C3A22",
"z  c #643B28",
"x  c #733720",
"c  c #753A22",
"v  c #7A3C23",
"b  c #783F28",
"n  c #54423A",
"m  c #5A433B",
"M  c #754126",
"N  c #7C4227",
"B  c #754429",
"V  c #7B452A",
"C  c #7D492C",
"Z  c #644335",
"A  c #5D4B44",
"S  c #644B42",
"D  c #694C42",
"F  c #655149",
"G  c #735549",
"H  c #605351",
"J  c #6B5750",
"K  c #6A5954",
"L  c #6C5F5B",
"P  c #745E56",
"I  c #6C605C",
"U  c #736059",
"Y  c #796B67",
"T  c #736C6B",
"R  c #7B6E6B",
"E  c #79706F",
"W  c #737071",
"Q  c #7B7474",
"!  c #7E7D7E",
"~  c #813D23",
"^  c #854126",
"/  c #884327",
"(  c #834529",
")  c #8C462A",
"_  c #854B2D",
"`  c #8C4B2D",
"'  c #90472B",
"]  c #924B2D",
"[  c #834E30",
"{  c #8D4E30",
"}  c #924E30",
"|  c #865131",
" . c #8D5333",
".. c #935433",
"X. c #9A5535",
"o. c #955937",
"O. c #9C5937",
"+. c #955C39",
"@. c #9C5C3A",
"#. c #A25D3B",
"$. c #9C623D",
"%. c #A4623E",
"&. c #835A4C",
"*. c #A36540",
"=. c #AA6742",
"-. c #A56A43",
";. c #AB6C45",
":. c #B16D46",
">. c #AD7148",
",. c #B3744A",
"<. c #B6794D",
"1. c #BA7D51",
"2. c #857B7A",
"3. c #8B7F7B",
"4. c #8F807D",
"5. c #91807A",
"6. c #838183",
"7. c #888789",
"8. c #8C8C8F",
"9. c #9A8983",
"0. c #968D8B",
"q. c #988F8E",
"w. c #96908D",
"e. c #858D92",
"r. c #899096",
"t. c #8D959A",
"y. c #949495",
"u. c #9E9898",
"i. c #939FA6",
"p. c #96A3A8",
"a. c #99A7AF",
"s. c #ACB5BB",
"d. c #B3BBBF",
"f. c #B6BEC4",
"g. c #BBC0C4",
"h. c #B4C3CB",
"j. c #BAC4C9",
/* pixels */
"                                                                                                                                ",
"                                                                                                                                ",
"                                                                                                                                ",
"                                                                                                                                ",
"                                                                                                                                ",
"                                                                                                                                ",
"                                                                                                                                ",
"                                                                                                                                ",
"                                                                                                                                ",
"                                                                                                                                ",
"                                                            ] ] %.=.*.                                                          ",
"                                                        ^ c w 9 0 V %.1.<.                                                      ",
"                                                  ~ ) ] ) ] ....N 4 1 V <.1.                                                    ",
"                                              / ) ] ) ) ) ) ' ] O.O.^ 2 6 -.<.                                                  ",
"                                          ' ' ` ) ) ) ) ` ' ) ) / ' X...6 4 >.>.                                                ",
"                                      ] ) ) ) ) ) ) ) ) ) ) ) ) ) ) ) ....4 j ,.                                                ",
"                                  / ' ) ) ) ) ) ) ) ) ) ) ) ) ) ) ) ) ) O.{ 1 ..,.                                              ",
"                                x ) ) ) ) ) ' ) ) ) ) ' ) ) ) ) ) ) ) ) ) #.j w :.O.                                            ",
"                              [ O.] ) ) ) ' ) ) ) ) ) ) ) ) ) ) ) ) ^ / ) ] o.9 ..*.                                            ",
"                            C h z @.X.) ) ` ) ) ) ) ( ) ) ) ) / t c b N c ~ O.M { +.,                                           ",
"                        ,.>.>.;.l <  .%.' ) ) ) ) ) ) ) ) ' v q o.>.;.-.-.N ..B ..+.&                                           ",
"                        ;.V , h -.$., B %.] ) ) ) ) ) ) ' ~ q ;.-.e ; ; w $.%.M *.C & 1                                         ",
"                      ,.X.& O O > $.;.5 M %.) ) ) ) ) ) ' e _ -.- m 0.u.S l <.j >.l , e 4                                       ",
"                      ,.C @ , 1 @ @ +.,.j _ #.) ) ) ) ) ) x ..e n g.5.5.g.s *.j <.5 , ( w                                       ",
"                      { N & 1 w w # @  .:.e  ...) ) ) ) ) c O.2 Q 6.. X q.Z +.l ,., 1 b ` 2                                     ",
"                        ( * 1 9 l 6 @ # o.$.w ` ] ' ) ) ) x ..2 L t.p F 6.a | | >.# 4 j ` l                                     ",
"                        { 1 1 2 7 l , @ , %.b e ` ..O.X.X.( ..x > W e.p.H k B $.+.# 9 c v { 1                                   ",
"                        } w * 4 3 c w , o c :._ j w r c ( ..@.*.C h a p >  .k -.C # 0 v x ` V 2                                 ",
"                        ` ` 5 , 4 6 M , = @ V O.%.@. .V l w q h C  .+.+.+.{ 3 ,.h 1 t w e t ..w 1                               ",
"                          ` c , 4 2 l 7 , # o # 4 j ( X.%.%.+.| M j 7 q e 2 l 1., w V r v t N _ K Z                             ",
"                          ~ ( 1 1 4 6 B , , 1 # @ # # # 1 q b { +.=.=.$.O.{ ;.$.@ 2 _ c v &.e ^ G s.G                           ",
"                            ` e , 4 2 c w = w e @ , 6 6 2 1 , 1 , 1 h c [ +...5 , 9 6 _ t 4.2.5 y.j.K                           ",
"                            b ( , 1 2 w C * r ( 6 @ t c e e e c c > 2 1 , # @ * t h s ^ e % Q 8.3.n #                           ",
"                              ` w - 6 2 V w * _ / , 5 ] y v v t _ w 6 c t t r x c z i.Y Z 6.U S > w 9                           ",
"                              ^ N 1 1 2 w V # r X.r @ N ( v ^ ^ b _ 1 v ~ ) / / ) 2 D t.a.! i X 1 o.V 6                         ",
"                              v ` 9 - 3 3 V 7 -  .) > 3 { c t r t ` l 6 ~ / / ~ ~ c % p m # 1 v t N O.6                         ",
"                                ( b - 1 3 w V # r ..w @ C { e w x x N s D t ~ v ~ v y 9 # B ..t e q +.M                         ",
"                                b ^ 6 # 2 2 B 5 , { ( $ 1 ..y t b r c z r.Y t v v c c v y 5 $.c e e ( ..1                       ",
"                                  ~ t , , 4 7 M & j ..e = M ..0 &.3.q j u.h.d x c c v v u 2 C ..t e j ..w                       ",
"                                  v v 4 @ 2 4 l , # _ ^ 6 5 r t 8 R T P f.L 3 c v v x t v r 5 $.x 0 q ^ j                       ",
"                                    c t * , 1 # 1 , k { e 7.T 6 z S y.J < # 4 v c c v y c c 2 { _ x t v c                       ",
"                                    ~ b 2 O , [ ..5 # | t Z t.t.p.Q > @ e  .; t v y v c c v 0 w ..e 9 e e ,                     ",
"                                      9 , l =.O.w 4 @ j _ 9 5 T A & 6 x t O.w 6 c v t v v x t 2  .x e q q #                     ",
"                                    + 5 $.=.B 1 j ` 3 # _ ^ 9 O w x x v e _ ` 1 t v x t x t c 6 C V 9 q 4 @                     ",
"                                    + .. .5 w  .O.#.b O z ^ v , |  .e e e x ..6 q v c x x x t q w N 6 2 - +                     ",
"                                    > 5 e _ #...) X.O., , N v 0 4 $.e x x t { c 2 x x x x x t q 3 q 4 # @                       ",
"                                      , ] X.) ) / ] %.j @ e v c > | V x x x ( ` 1 j x x x j w 6 2 , # o                         ",
"                                      @ e ' ) ) ) ) #.( @ 1 y v 4 j ..e q e v { 6 0 x t 0 9 2 & @ @                             ",
"                                        > ^ ' ) / / #.} , , e v r , ..x x x x ` e 6 r q 6 3 #                                   ",
"                                        > 6 ] ) ) / O.} , , 0 c v , C N e 4 e N e 1 9 6 , @                                     ",
"                                          > x ] ) ] X.b , , 0 e x 4 h  .0 q 0 e 9 1 3 # #                                       ",
"                                          , > c ' ] v 1 * 6 w e e 9 1 ( q e w 9 4 & @                                           ",
"                                            , & 1 1 5 1 3 w 9 6 6 4 1 j w 9 6 1 > @                                             ",
"                                                @ > 9 9 9 6 6 6 2 4 1 2 4 1 $ # @                                               ",
"                                                  + > , , , , > @ @ , * # @ @                                                   ",
"                                                                  + @ @ +                                                       ",
"                                                                                                                                ",
"                                                                                                                                ",
"                                                                                                                                ",
"                                                                                                                                ",
"                                                                                                                                ",
"                                                                                                                                ",
"                                                                                                                                ",
"                                                                                                                                "
};
