/* XPM */
static char *coin1646671066[] = {
/* columns rows colors chars-per-pixel */
"64 64 219 2 ",
"   c None",
".  c #3D1403",
"X  c #3C1A03",
"o  c #351903",
"O  c #431B04",
"+  c #491E05",
"@  c #431F0E",
"#  c #4D2105",
"$  c #4C250D",
"%  c #46220D",
"&  c #522505",
"*  c #562904",
"=  c #5D2D05",
"-  c #582B0B",
";  c #5B320E",
":  c #5D3105",
">  c #4A2713",
",  c #512C10",
"<  c #5B3412",
"1  c #563014",
"2  c #602E05",
"3  c #6A3605",
"4  c #63320C",
"5  c #6A3B0A",
"6  c #663806",
"7  c #763E06",
"8  c #783E07",
"9  c #653C13",
"0  c #653B11",
"q  c #6F420A",
"w  c #73430B",
"e  c #7C440B",
"r  c #7B4A0B",
"t  c #794205",
"y  c #7F520C",
"u  c #69421A",
"i  c #694116",
"p  c #744914",
"a  c #794F1C",
"s  c #754913",
"d  c #7C531C",
"f  c #744E21",
"g  c #7B5223",
"h  c #814707",
"j  c #834B07",
"k  c #824709",
"l  c #854C0A",
"z  c #8B4E0A",
"x  c #894B07",
"c  c #86540D",
"v  c #8F5309",
"b  c #8A570A",
"n  c #92550A",
"m  c #945A0B",
"M  c #9B5C0B",
"N  c #834D11",
"B  c #855312",
"V  c #875C15",
"C  c #8C5B13",
"Z  c #85591A",
"A  c #86581C",
"S  c #945513",
"D  c #995E12",
"F  c #A05D09",
"G  c #996A0F",
"H  c #99620E",
"J  c #8C6210",
"K  c #9D6B13",
"L  c #996718",
"P  c #A4640D",
"I  c #A8650C",
"U  c #AB6B0D",
"Y  c #A56B0E",
"T  c #B36B0A",
"R  c #B2740E",
"E  c #B47A0E",
"W  c #B87A0F",
"Q  c #A46513",
"!  c #AD6C17",
"~  c #B36E16",
"^  c #AD7412",
"/  c #A97815",
"(  c #B27412",
")  c #BA7314",
"_  c #B57D13",
"`  c #BA7C13",
"'  c #B7791F",
"]  c #AA730E",
"[  c #825B27",
"{  c #8B6021",
"}  c #966E2B",
"|  c #9B6E28",
" . c #986C26",
".. c #AB7B24",
"X. c #A3792D",
"o. c #A47725",
"O. c #B27D24",
"+. c #C3760C",
"@. c #C67A0E",
"#. c #CD7E0D",
"$. c #C37514",
"%. c #C87C15",
"&. c #D17F15",
"*. c #AD8119",
"=. c #BE8413",
"-. c #BB8917",
";. c #BC821B",
":. c #BC8B1A",
">. c #B68316",
",. c #BF901C",
"<. c #B78726",
"1. c #AF8230",
"2. c #B58A33",
"3. c #CE810E",
"4. c #D3840F",
"5. c #C28514",
"6. c #CD8212",
"7. c #C58B16",
"8. c #CC8A14",
"9. c #C38C1B",
"0. c #CC8218",
"q. c #D58312",
"w. c #D48A12",
"e. c #DA8C12",
"r. c #D28718",
"t. c #CC9C1A",
"y. c #C8911A",
"u. c #DB9214",
"i. c #DB9817",
"p. c #DC951A",
"a. c #DB9A1B",
"s. c #D49B1C",
"d. c #E39B16",
"f. c #E29B1B",
"g. c #E09619",
"h. c #DCAB1D",
"j. c #DDA71F",
"k. c #E3A31C",
"l. c #E9AC1C",
"z. c #E6A91C",
"x. c #F2AE1E",
"c. c #EBB31E",
"v. c #E2B21F",
"b. c #F2B31E",
"n. c #C48C25",
"m. c #CB9626",
"M. c #C5902E",
"N. c #CC9C2C",
"B. c #CC9729",
"V. c #D49B22",
"C. c #DD9B21",
"Z. c #D79728",
"A. c #CA9836",
"S. c #E19C22",
"D. c #CBA120",
"F. c #DCA424",
"G. c #DDAB21",
"H. c #DBA72B",
"J. c #DEAD2D",
"K. c #D2A42D",
"L. c #CCA038",
"P. c #DDAD35",
"I. c #D9AB39",
"U. c #DFB032",
"Y. c #E3A425",
"T. c #E2AB22",
"R. c #E5A828",
"E. c #E4B321",
"W. c #EBB421",
"Q. c #EDBC23",
"!. c #EAB12D",
"~. c #EDBC2E",
"^. c #E2B02F",
"/. c #F2BD22",
"(. c #F0B720",
"). c #EBAE30",
"_. c #E4B031",
"`. c #ECBC33",
"'. c #E9B533",
"]. c #F3BB32",
"[. c #EFC32D",
"{. c #F4C324",
"}. c #FBCA25",
"|. c #F4C42B",
" X c #F7C82A",
".X c #EDC135",
"XX c #EFC23A",
"oX c #F3C434",
"OX c #F0C33B",
"+X c #F4C93A",
"@X c #BD9A4C",
"#X c #D3A543",
"$X c #D8AE4B",
"%X c #D6AB46",
"&X c #DDB146",
"*X c #DDB558",
"=X c #E7BB47",
"-X c #E7BD52",
";X c #CBA961",
":X c #D0AE63",
">X c #E6BF64",
",X c #F1C747",
"<X c #EDC75B",
"1X c #F2CC52",
"2X c #F3CE5D",
"3X c #F1CA50",
"4X c #EAC565",
"5X c #F0CF6D",
"6X c #F7D66C",
"7X c #F7D668",
"8X c #EDCE79",
"9X c #F9D972",
"0X c #F5D67B",
"qX c #F6D775",
"wX c #EED082",
"eX c #F1D383",
"rX c #F5DA8B",
"tX c #F7DA84",
"yX c #F5DA92",
/* pixels */
"                                                                                                                                ",
"                                                                                                                                ",
"                                                                                                                                ",
"                                                                                                                                ",
"                                                                                                                                ",
"                                                                                                                                ",
"                                                                                                                                ",
"                                                                                                                                ",
"                                                                                                                                ",
"                                                                                                                                ",
"                                                                                                                                ",
"                                                                                                                                ",
"                                                                                                                                ",
"                                                                                                                                ",
"                                                                                                                                ",
"                                                                                                                                ",
"                                                                                                                                ",
"                                                                                                                                ",
"                                                          F.F.T.T.T.T.T.T.G.G.                                                  ",
"                                                F.T.W.Q.|.|.oXoXoXoX.X~.oX X X{.{.Q.Q.                                          ",
"                                            T./.|.~.J.L.2... .[ A a s p p J L -.t.v.{.{.Q.v.                                    ",
"                                      s.W./.~.K./ V r r j m U ] ^ >.>.] / G V q 6 6 y >.{.{.Q.                                  ",
"                                    -X1X=X<.B r m E w.i.k.l.b.(.W.(./.}.G.v.{.{.v.-.V = q t.{.{.W.                              ",
"                                Z.2X8X;XZ t Y w.d.d.d.k.k.k.9.>.(.Q.H.*.; i h.b.{.{.{.h.J : ,.{.{.D.                            ",
"                              6.c.`.X.5 I p.S.f.p.f.8.c ;.(.1.< o.d , ; L ,.v.Q.c.{.{.}.}.,.q h.{.{.                            ",
"                              c.!.} 2 ` S.f.S.S.S.Y.A.> Q M.[ @ ; C 9.T.Q./.b.{.|..Xo.*.Q.}.-.G {.[.OX                          ",
"                            z.W.o.& R p.e.e.g.f.R.Z...$ , 9 A 1 / /.(.W.c.{.~.L.} u i V v.{.v.G .X1X3X                          ",
"                          0.Q.F.= z e.e.e.g.Z.O.[ 4 5 9 ; Z.].g Z ].].].K.X.f i V ,.v.{.{.{.E.*.1X6X1X                          ",
"                          C.Q.>.= +.&.%.' A 9 0 N ) g.n.@ %.x. .0 P.2.[ u d <.U..X X[.Q.Q.Q.t.N.9X9X3X                          ",
"                          ^.b./ 8 #.#.w 4 z U q.g.f.S.Z.1 L ).| % i s K D.~.oXXXXXXXXXXXoXG.<.7X9XrX1X                          ",
"                          H.W.7.t +.#.+.@.e.e.e.e.e.f.R.g < f p $ C T.b.c.z.l.W.Q.~..XXXK.:.<X9X0XyX,X                          ",
"                          Z.Y.i.n F @.#.w.4.e.e.r.n.X.A 4 > ( C.L O.!.!.!.W.T.c.c.c.h.n.,.<XtXrXyXyX,X                          ",
"                          ) n.p.q.F F +.#.#.4.e.B > e I ) , ( d.a.k.Y.^.!.'.`.'.G.7.n._.+X2XeXrXyXrX                            ",
"                            B ~ q.&.I F T +.#.&.@.P 3.e.4.D ` u.u.p.i.a.k.F.Z.9.M.*X1X+X+X3X4XeXyXrX                            ",
"                            b : S $.&.$.I F F T +.#.#.3.3.e.w.w.w.8.3.5.W R =.I.7X7X6X2X4XL.#XeXyXtX                            ",
"                            G * + - z $.&.#.) ! P M H P I Y Y Y ^ ^ _ :.t.E.{.+X2X5X>X#X:.-.%XeXyX0X                            ",
"                            / : + O . & 8 Q %.&.p.p.s.j.h.G.E.E.Q.[.{. XoXOX3X-X#XA.9.E =.9.$XeXrX5X                            ",
"                            J 6 O O O O O & 4 e S ! ;.m.H.P.J.^.P._.I.#XL.A.M.` =.9.9.=.=.y.$X8XtX@X                            ",
"                              6 O O O O + + & * 2 3 8 k z S D Q K Q Q P I R ` ` 7.m.9.=.=.-.#X0X:X                              ",
"                              - + O O O O + & * 2 3 8 k x v n M M P I Y U ` =.5.7.m.9.=.=.7.&X:X9                               ",
"                              X + O O O O # & * 2 3 8 k z n M F P I I U ( ` =.7.7.B.7.=.7.y.} $                                 ",
"                                . O O O O + # * = 3 t h z n M M P P Y I U ` =.5.7.B.m.7.' 9 .                                   ",
"                                  o X O + + & * = 3 7 h z n M P P Y Y U R ` 5.7.y.M./ p +                                       ",
"                                      o X O + & = 3 t e z n M H P I I ~ _ ` =.^ c ; . .                                         ",
"                                          X X + & = 6 7 e l v m m m v c e 5 - # .                                               ",
"                                                  O O O + # # # # + O O .                                                       ",
"                                                                                                                                ",
"                                                                                                                                ",
"                                                                                                                                ",
"                                                                                                                                ",
"                                                                                                                                ",
"                                                                                                                                ",
"                                                                                                                                ",
"                                                                                                                                ",
"                                                                                                                                ",
"                                                                                                                                ",
"                                                                                                                                ",
"                                                                                                                                ",
"                                                                                                                                ",
"                                                                                                                                ",
"                                                                                                                                ",
"                                                                                                                                ",
"                                                                                                                                ",
"                                                                                                                                "
};
