/* XPM */
static char *document1646671037[] = {
/* columns rows colors chars-per-pixel */
"64 64 168 2 ",
"   c None",
".  c #492913",
"X  c #5D2E15",
"o  c #672E0D",
"O  c #6D2D0E",
"+  c #632C14",
"@  c #692F16",
"#  c #643511",
"$  c #6C3513",
"%  c #653B14",
"&  c #6B3A16",
"*  c #6E3419",
"=  c #743415",
"-  c #793616",
";  c #74351A",
":  c #753B1A",
">  c #7C3A1B",
",  c #76411D",
"<  c #7B431E",
"1  c #784720",
"2  c #784D24",
"3  c #7D5126",
"4  c #6D4D34",
"5  c #76433A",
"6  c #674346",
"7  c #654C54",
"8  c #6C5D5B",
"9  c #796550",
"0  c #853415",
"q  c #88371B",
"w  c #833C1D",
"e  c #893B1E",
"r  c #843418",
"t  c #943A1C",
"y  c #983A19",
"u  c #803F23",
"i  c #953E21",
"p  c #81431C",
"a  c #874623",
"s  c #8A4324",
"d  c #824D26",
"f  c #8B4C27",
"g  c #814728",
"h  c #824F2A",
"j  c #8B4E29",
"k  c #934424",
"l  c #974A2F",
"z  c #994928",
"x  c #9C4622",
"c  c #86532A",
"v  c #8A542B",
"b  c #8B5A2E",
"n  c #855A2F",
"m  c #935626",
"M  c #91562C",
"N  c #9C582C",
"B  c #934831",
"V  c #865B30",
"C  c #8F5B32",
"Z  c #935C31",
"A  c #9C5D36",
"S  c #A15F33",
"D  c #8D6236",
"F  c #956335",
"G  c #9B6433",
"H  c #9B6837",
"J  c #94623B",
"K  c #9C653A",
"L  c #966B3E",
"P  c #9D6A3A",
"I  c #A26734",
"U  c #A26D3D",
"Y  c #A4713F",
"T  c #AA713D",
"R  c #966544",
"E  c #9B6B48",
"W  c #9E7143",
"Q  c #A46F42",
"!  c #A47242",
"~  c #AA7645",
"^  c #AC7946",
"/  c #A0714D",
"(  c #AA734B",
")  c #AC7B4A",
"_  c #B27A45",
"`  c #B27E4C",
"'  c #BC7949",
"]  c #A77654",
"[  c #847B71",
"{  c #B4824E",
"}  c #B9844E",
"|  c #B48452",
" . c #B98552",
".. c #B48957",
"X. c #BB8A55",
"o. c #B68A58",
"O. c #BC8C59",
"+. c #BB825E",
"@. c #BD905B",
"#. c #AE8261",
"$. c #C18E56",
"%. c #C08E5B",
"&. c #C3935C",
"*. c #C9965C",
"=. c #C9985F",
"-. c #C49561",
";. c #C79963",
":. c #CB9C64",
">. c #C79A68",
",. c #CC9D69",
"<. c #CE926A",
"1. c #C29773",
"2. c #CEA066",
"3. c #CEA16B",
"4. c #D4A366",
"5. c #D3A56C",
"6. c #D6A96F",
"7. c #D9A96E",
"8. c #CFA47A",
"9. c #D2A570",
"0. c #D6A972",
"q. c #DAAD73",
"w. c #DBAF78",
"e. c #DDB077",
"r. c #DEB17A",
"t. c #E0B276",
"y. c #E1B57C",
"u. c #E5B97E",
"i. c #17518D",
"p. c #1B538C",
"a. c #1B5693",
"s. c #2C639B",
"d. c #2262A4",
"f. c #276EB7",
"g. c #3275BB",
"h. c #3C7FC0",
"j. c #698DAF",
"k. c #6D97BD",
"l. c #3C81C7",
"z. c #4C8BCD",
"x. c #4182C2",
"c. c #498DD3",
"v. c #AFB2AC",
"b. c #D4AB82",
"n. c #DCB383",
"m. c #D7B18A",
"M. c #E4B981",
"N. c #E4BC8E",
"B. c #E8BE88",
"V. c #E4BE94",
"C. c #E7C08F",
"Z. c #ECC28C",
"A. c #EAC393",
"S. c #EDC79A",
"D. c #EFC99B",
"F. c #F2C994",
"G. c #F3CC9B",
"H. c #FBCE98",
"J. c #F7D19F",
"K. c #F8D19E",
"L. c #EFCDA3",
"P. c #F3CEA1",
"I. c #F5D0A2",
"U. c #FDD7A7",
"Y. c #FAD7A9",
"T. c #FCDAAE",
"R. c #FEDEB2",
"E. c #FFE1B5",
/* pixels */
"                                                                                                                                ",
"                                                                                                                                ",
"                                                                                                                                ",
"                                                                                                                                ",
"                                                                                                                                ",
"                                                                                                                                ",
"                                                                                                                                ",
"                                                                                                                                ",
"                                                                                                                                ",
"                                                                                                                                ",
"                                                                                                                                ",
"                                                                          R.                                                    ",
"                                                                      R.@.E / V.                                                ",
"                                                                    L.E ; g g N.                                                ",
"                                                                E.V.A M I m ] G.4.                                              ",
"                                                              D.,.I P _ Q I M b.M.                                              ",
"                                                          E.n._ T p c _ _ T N P S.                                              ",
"                                                        I.>.T _ Y $ b $. ._ T m 8.M.                                            ",
"                                                    E.n.| _ } $.Z = } *.$.X._ I K 7.                                            ",
"                                                  I.@.! ` O.O.$.X.{ *.:.*.$.' _ A }                                             ",
"                                              R.n.( !  .X.&.;.U < O.2.2.:.:.*.$.^ T 6.                                          ",
"                                            D.o.H Q ) X.&.=.&., , *.5.4.4.4.:.*.} U :.                                          ",
"                                          b.J F ! ) ` o.=.:.:.) ~ 5.5.7.5.5.4.:.X._ %.                                          ",
"                                        G.E Z U ~ ) { O.:.4.P ( 4.6.7.7.7.5.5.:.X.` O.y.                                        ",
"                                        I.W P ^ ) { O.:.6.o.o 1 3.q.q.6.q.5.5.:.%.X. .q.                                        ",
"                                      F.J.1.J |  ...:.3.q.-.< ! e.q.q.q.q.6.7.5.:.%.X.,.                                        ",
"                                      Z.F.m.P X.&.-.3.e.X.) ,.0.e.q.w.w.e.q.6.2.5.4.=.%.M.                                      ",
"                                    F.F.C.J ^ $.:.2.:.6.d o o.y.w.w.w.e.q.q.7.,.5.7.4.*.r.                                      ",
"                                    F.G.R H  .@.2.6.e.` o h 9.w.e.r.r.r.r.e.q.q.7.7.5.5.M.                                      ",
"                                    K.#.c ) X.;.4.0.e.-.C O.M.w.r.r.y.y.y.r.q.q.q.7.4.Z.                                        ",
"                                    b.h U { @.:.5.e.~ C ,.M.w.w.r.y.y.0.5.y.y.q.q.7.7.K.B.I.                                    ",
"                                    J b ~ } &.2.0.@.$ & ;.y.9.5.0.9.! : v ,.X.t.q.7.t.Z.4.A.                                    ",
"                                    c F ^ X.&.3.0.;.c ) M.q.3.3.9.,.n d &.) $  .t.7.q.7.4.u.                                    ",
"                                  =.b H ^ X.&.5.,.) -.y.r.8.3.9.,.) 3.w.M.-.A %.t.q.7.7.4.5.U.                                  ",
"                                    ~ G { o.@.6.-.$ C r.r.9.3.8.R % ..M.t.y.:. .4.q.7.7.7.*.F.                                  ",
"                                    N.P { @.=.6.-.& L r.r.9.9.3.V 3 9.r.y.9.1 > :.e.7.q.7.*.n.                                  ",
"                                    T.3.) O.-.5.5.| -.>.r.r...D ..>.r.w.r.<.< Z 0.q.&._ { %.5.T.                                ",
"                                      Y.O.{ &.3.q.@., % L -.% % | r.w.q.q.%.%.3.6.( p q q z ' I.                                ",
"                                        C.| o.-.5.3.W 2 D @.V ..w.0.q.q.-.= j 7.) i + @ ; = 0 <.                                ",
"                                        R.0.X.&.3.9.0.9.3.9.0.e.0.9.9.q.Q O ~ 3.N B i ; X w * z D.                              ",
"                                          I.&.-.3.3.6.9.9.6.6.3.9.5.9.,.-.{ 2.O.x e q + . g > e +.                              ",
"                                          T.n.O.:.3.2.3.3.3.6.3.5.9.5.K d -.6.O.s t $ y X > ; B (                               ",
"                                            T.-.&.:.:.,.3.3.3.3.-.&.:.a a &.2.=.b t * * r ; : y %.R.                            ",
"                                              C. .-.-.:.2.>.3.6.K > O.o.} 2.:.2.{ 1 t 0 = = y S q.Y.                            ",
"                                              E.3.X.&.-.-.:.o.! f - | ,.;.=.=.=.O.! 4 7 5 6 8 q.G.                              ",
"                                                D.X.X.@.&.-.Q O - - w j X.=.*.*.O.` 9 l.x.l.k.G.                                ",
"                                                E.3.{ X.X.X.~ M w - - >  .=.&.$.` _ [ x.c.z.z.                                  ",
"                                                  D.) ) ) ) | ..j - ^ ) $.$.X.) } r.j.f.g.g.g.                                  ",
"                                                  R.;.! ~ ) ) ) U H  .X.O.| ~ &.H.v.d.d.d.d.                                    ",
"                                                    A.Y P Q P ! ~ { { { ^ ! 5.U.  s.a.  a.a.                                    ",
"                                                    T.,.^ ^ -.n.| P Y Y ^ r.R.    i.      p.                                    ",
"                                                      T.G.G.S.Z.D.>.^ &.S.                                                      ",
"                                                            4.4.q.G.G.T.                                                        ",
"                                                                                                                                ",
"                                                                                                                                ",
"                                                                                                                                ",
"                                                                                                                                ",
"                                                                                                                                ",
"                                                                                                                                ",
"                                                                                                                                ",
"                                                                                                                                ",
"                                                                                                                                ",
"                                                                                                                                ",
"                                                                                                                                "
};
