/* XPM */
static char *envelope1646671095[] = {
/* columns rows colors chars-per-pixel */
"64 64 125 2 ",
"   c None",
".  c #53230F",
"X  c #5C240E",
"o  c #4F2C15",
"O  c #542711",
"+  c #572A13",
"@  c #5B2B14",
"#  c #543017",
"$  c #5D381D",
"%  c #642E15",
"&  c #6E2F16",
"*  c #692F18",
"=  c #772F16",
"-  c #6F3319",
";  c #753116",
":  c #7A3116",
">  c #74351A",
",  c #7D371B",
"<  c #78391C",
"1  c #5D3A21",
"2  c #633E22",
"3  c #783C25",
"4  c #664022",
"5  c #6B4324",
"6  c #6F4827",
"7  c #654228",
"8  c #6E4728",
"9  c #714725",
"0  c #734C2C",
"q  c #7D522E",
"w  c #754F30",
"e  c #7E5836",
"r  c #843317",
"t  c #8B371C",
"y  c #8C3A1D",
"u  c #963C1C",
"i  c #813F22",
"p  c #824527",
"a  c #8D4623",
"s  c #864A2C",
"d  c #8F492C",
"f  c #904624",
"g  c #9C4B2D",
"h  c #88552D",
"j  c #92582F",
"k  c #815732",
"l  c #8B5131",
"z  c #8B5D36",
"x  c #865F3B",
"c  c #A0512F",
"v  c #8B6239",
"b  c #926339",
"n  c #97693D",
"m  c #9C683D",
"M  c #815E41",
"N  c #856141",
"B  c #8D6643",
"V  c #936A43",
"C  c #9B6C40",
"Z  c #946E49",
"A  c #997046",
"S  c #95714F",
"D  c #A37446",
"F  c #A4774A",
"G  c #AA7749",
"H  c #A5794D",
"J  c #AA7C4C",
"K  c #A07C56",
"L  c #A97E51",
"P  c #B1814E",
"I  c #AD8153",
"U  c #A7825E",
"Y  c #A88259",
"T  c #B38553",
"R  c #B68856",
"E  c #BB8B55",
"W  c #B08458",
"Q  c #B58B5B",
"!  c #BB8D5A",
"~  c #BF915D",
"^  c #AE8B63",
"/  c #B68E62",
"(  c #BE9667",
")  c #BC976E",
"_  c #BD996B",
"`  c #C08F59",
"'  c #C2925C",
"]  c #C8975F",
"[  c #C49661",
"{  c #C69964",
"}  c #CB9C65",
"|  c #C29C6C",
" . c #CD9F69",
".. c #CEA066",
"X. c #CEA16A",
"o. c #D1A267",
"O. c #D2A36C",
"+. c #D6A86A",
"@. c #D9AB6E",
"#. c #C6A172",
"$. c #C9A577",
"%. c #D1A672",
"&. c #D5A972",
"*. c #DBAE72",
"=. c #D4AB78",
"-. c #DDB176",
";. c #DEB37A",
":. c #E3B477",
">. c #E1B67D",
",. c #E5B97D",
"<. c #DCB684",
"1. c #E2B780",
"2. c #E4BA83",
"3. c #E9BF87",
"4. c #E6BE8A",
"5. c #EABF89",
"6. c #E9C086",
"7. c #E6C08E",
"8. c #EBC28B",
"9. c #E6C292",
"0. c #ECC692",
"q. c #EAC799",
"w. c #EBCA9C",
"e. c #F2CB96",
"r. c #EECDA0",
/* pixels */
"                                                                                                                                ",
"                                                                                                                                ",
"                                                                                                                                ",
"                                                                                                                                ",
"                                                                                                                                ",
"                                                                                                                                ",
"                                                                                                                                ",
"                                                                                                                                ",
"                                                                                                                                ",
"                                                                                                                                ",
"                                                                                                                                ",
"                                                                                                                                ",
"                                                                                                                                ",
"                                                                                                                                ",
"                                                *.                                                                              ",
"                                              -.+.*.                                                                            ",
"                                            9.o.+.+.*.                                                                          ",
"                                          w.&.o.@.@.@.@.>.                                                                      ",
"                                          2.} +.@.@.*.*.*.>.                                                                    ",
"                                        w.O.o.@.@.*.*.*.*.*.-.                                                                  ",
"                                        <...+.@.*.*.-.-.-.-.*.-.                                                                ",
"                                        S <.o.*.*.-.>.>.1.1.>.-.-.2.                                                            ",
"                                      I 4 U ,.@.*.>.1.2.2.2.1.1.;.;.1.                                                          ",
"                                    X.( F 2 #.:.*.-.1.2.2.4.5.2.1.;.*.2.                                                        ",
"                                    %.' ! v 7 <.>.;.1.2.2.4.4.4.2.1.>.-.>.                                                      ",
"                                  <.{ { ' Q 0 N 0.5.7.2.2.4.4.4.3.2.1.>.;.;.7.                                                  ",
"                                q.X.{ } { ! Y % ^ e.0.2.2.5.4.4.4.4.2.1.>.;.-.2.                                                ",
"                              r.=.| } X.} [ ! V 1 <.0.2.1.2.4.5.4.4.3.2.2.>.;.*.;.4.                                            ",
"                            r.;.} X.O.O.} { ` Q 8 N e.>.1.2.3.5.7.4.4.3.3.1.1.;.-.@.;.                                          ",
"                            <.X.O.%.%.O. .} [ ! H # ) 9.>.2.3.5.4.4.4.4.3.2.1.;.;.-.@.-.1.                                      ",
"                          Q ! } O.O.+.O.X.} | ' Q z 2 <.*.{ ( #.1.8.3.4.4.3.3.1.;.>.-.*.@.;.                                    ",
"                            L W } O.&.%.O.X.} { Q T 0 8 l > > 0 B =.7.4.2.2.2.1.1.1.;.;.*.@.-.;.                                ",
"                              I L { &.O.O.O...{ ' Q m : . + + X , B ;.2.2.2.2.2.2.;.2.;.;.-.@.@.-.                              ",
"                                H L } %.O.O.X.} } T c % < > % & - s _ 6.<.,.2.;.1.,.>.>.;.;.-.@.+.@.>.                          ",
"                                    L } &.O.X. .X.G g @ p O O y 3 d W ,.;.;.;.;.;.>.>.<.>.;.-.*.@.@.O.Q                         ",
"                                      J } &.O. .X.G u + > > u % t s | ,.,.,.3.6.7.3.>.;.;.;.-.@.@.*.W                           ",
"                                        H ! O.O.O.R a ; . % + & : 4 V Z Y Q _ $.<.7.8.7.6.,.,.>.-.(                             ",
"                                          F ! O.O.} D a r = r ; 4 v b q 9 4 4 5 5 w v Z K ^ _ =.(                               ",
"                                            F Q o.O.} T m j h b P R T J G A n n b z k q w 9 5 e C                               ",
"                                              H R ..o... .[ [ } { ] ' E E T P P J G J H J G G H                                 ",
"                                                H T { o.} o.X.} } } { [ [ ' ` ` R R J E P P G                                   ",
"                                                  H J ' ......X. .} } } } { [ ' ` ` ` ` E L H                                   ",
"                                                    H H ` ..O... . .X. .} } } { ] ] ` ` T H                                     ",
"                                                        F ` o.X.O.X.O. . . . . .} [ ` ` J                                       ",
"                                                          F E O.O.O.O.X.O.X.O.} [ [ ' L                                         ",
"                                                            H ! O.O.X.O.O.O.O.[ ` ` L L                                         ",
"                                                              H T X.O.O.O.O.} ! ` L L                                           ",
"                                                                H T } O.X.X.{ ! R L                                             ",
"                                                                  H J ] o.} ' R H                                               ",
"                                                                      H ` } E L                                                 ",
"                                                                        J E T                                                   ",
"                                                                          P                                                     ",
"                                                                                                                                ",
"                                                                                                                                ",
"                                                                                                                                ",
"                                                                                                                                ",
"                                                                                                                                ",
"                                                                                                                                ",
"                                                                                                                                ",
"                                                                                                                                ",
"                                                                                                                                ",
"                                                                                                                                ",
"                                                                                                                                ",
"                                                                                                                                "
};
