/* XPM */
static char *gemRed1646670994[] = {
/* columns rows colors chars-per-pixel */
"64 64 170 2 ",
"   c None",
".  c #5F0000",
"X  c #650200",
"o  c #6B0500",
"O  c #770600",
"+  c #7E0500",
"@  c #720E0B",
"#  c #830500",
"$  c #8A0402",
"%  c #840904",
"&  c #8A0905",
"*  c #8D0B0B",
"=  c #920404",
"-  c #920608",
";  c #940A09",
":  c #9B090A",
">  c #95120F",
",  c #930E15",
"<  c #9A0F10",
"1  c #8D1415",
"2  c #8D1919",
"3  c #961214",
"4  c #9B1313",
"5  c #961419",
"6  c #9B1318",
"7  c #961B19",
"8  c #A4050C",
"9  c #A50E14",
"0  c #A90C13",
"q  c #A21115",
"w  c #A4161B",
"e  c #A9151A",
"r  c #A5191E",
"t  c #AB191E",
"y  c #AA1317",
"u  c #82201F",
"i  c #9D1A20",
"p  c #A41D21",
"a  c #AD1E23",
"s  c #B31E24",
"d  c #BA1F25",
"f  c #9B322F",
"g  c #943737",
"h  c #9B3B3A",
"j  c #A32121",
"k  c #AE2126",
"l  c #A5232A",
"z  c #AD242A",
"x  c #AD2B2E",
"c  c #B02125",
"v  c #BA2127",
"b  c #B3262B",
"n  c #BC252B",
"m  c #B3292E",
"M  c #BD292E",
"N  c #B42D33",
"B  c #B92D35",
"V  c #B53036",
"C  c #B93137",
"Z  c #B6343A",
"A  c #B9353B",
"S  c #B6383E",
"D  c #B9393E",
"F  c #D1373F",
"G  c #D1383F",
"H  c #A63F43",
"J  c #B43D42",
"K  c #BA3D42",
"L  c #CE3B42",
"P  c #A74146",
"I  c #BB4046",
"U  c #B3464C",
"Y  c #BD464B",
"T  c #BD494E",
"R  c #A9504E",
"E  c #BF4C52",
"W  c #AF5258",
"Q  c #AB5354",
"!  c #BC5B60",
"~  c #B26166",
"^  c #BC6669",
"/  c #B7686C",
"(  c #B8696E",
")  c #B56469",
"_  c #BB6F72",
"`  c #C04046",
"'  c #C14349",
"]  c #DA4248",
"[  c #C24E53",
"{  c #DC4C54",
"}  c #C25155",
"|  c #C3555A",
" . c #C3595E",
".. c #DF555D",
"X. c #E05157",
"o. c #E1555C",
"O. c #E2585F",
"+. c #C45D61",
"@. c #DE5860",
"#. c #C66166",
"$. c #C96367",
"%. c #C7656A",
"&. c #C9666A",
"*. c #C76A6F",
"=. c #C9696D",
"-. c #DF646A",
";. c #C26D70",
":. c #CB6D71",
">. c #C47376",
",. c #CB7275",
"<. c #CC7679",
"1. c #C1787B",
"2. c #CD797E",
"3. c #C4777A",
"4. c #D17B7E",
"5. c #E4676E",
"6. c #E76C72",
"7. c #E5757B",
"8. c #E9747A",
"9. c #EC797F",
"0. c #CE7D81",
"q. c #D17D81",
"w. c #ED7D82",
"e. c #E47C81",
"r. c #CE8285",
"t. c #D28286",
"y. c #D2868A",
"u. c #D5898D",
"i. c #D88B8D",
"p. c #D58D91",
"a. c #D88D91",
"s. c #D69195",
"d. c #D99396",
"f. c #D79599",
"g. c #D99699",
"h. c #DB9A9D",
"j. c #EE8187",
"k. c #EF8388",
"l. c #E6888B",
"z. c #E09D9F",
"x. c #E49599",
"c. c #DC9DA1",
"v. c #DEA2A5",
"b. c #DFA6A9",
"n. c #DFACAE",
"m. c #E0A5A7",
"M. c #E0A7A9",
"N. c #E1ABAD",
"B. c #E2AEB0",
"V. c #EAAFB2",
"C. c #E4B3B5",
"Z. c #ECB4B6",
"A. c #E6B6B9",
"S. c #E7BABC",
"D. c #ECBBBD",
"F. c #E9BFC1",
"G. c #EAC3C5",
"H. c #ECC7C9",
"J. c #EDCBCC",
"K. c #EECFD1",
"L. c #EFD0D2",
"P. c #F1D4D5",
"I. c #F2D7D9",
"U. c #F3DADB",
"Y. c #F4DFE0",
"T. c #F6E4E4",
"R. c #F9EBEB",
"E. c #F9F0EF",
"W. c #FCF7F6",
"Q. c #FFFEFE",
/* pixels */
"                                                                                                                                ",
"                                                                                                                                ",
"                                                                                                                                ",
"                                                                                                                                ",
"                                                                                                                                ",
"                                                                                                                                ",
"                                                                                                                                ",
"                                                                                                                                ",
"                                                                                                                                ",
"                                                                                                                                ",
"                                                                                                                                ",
"                                                                                                                                ",
"                                                                                                                                ",
"                                                                                                                                ",
"                                                                                                                                ",
"                                                                          L G G { O.                                            ",
"                                                              m m C } N.7.] { { o.k.6.                                          ",
"                                                      N N m b b b M d A z.e.{ X.o.9.j.9.@.                                      ",
"                                                    b b b N N B C C A C A i.l.o...8.w.9.w.5.                                    ",
"                                                  N N N B V C V D K I I K L i.x.5.7.w.w.9.9.8.                                  ",
"                                                N V A Z Z Z Z K K I [ | | | } z.G.D.D.D.Z.V.V.Z.h.                              ",
"                                              A D K K K K K K Y [ [ +.$.&.-.&.z.L.G.J.J.H.G.F.H.t.                              ",
"                                            K I K K K K I Y T E }  .+.:.<.,.,.S.J.G.H.G.G.F.D.G.Y                               ",
"                                          [ T T Y T T T E T [ }  .=.:.4.y.t.t.J.L.G.J.H.G.F.G.S.j                               ",
"                                         .| | E E [ [ [ } } +.+.$.<.q.y.a.d.h.U.L.J.J.H.G.G.G.N.4                               ",
"                                    :.&.%.#. . . .| | | | +.#.$.:.q.i.d.h.z.Z.R.P.J.J.H.G.G.H.h.=                               ",
"                                  2.,.,.:.*.#.#.+. .+.+. .$.=.=.<.y.d.c.m.M.K.R.P.L.J.J.G.G.H.t.$                               ",
"                                >.0.2.<.,.,.=.&.#.#.#.#.+.&.:.=.4.l.g.z.N.A.E.T.U.P.L.J.H.G.G.#.#                               ",
"                                ,.r.0.2.<.,.*.*.*.%.&.$.#.=.=.,.4.i.d.m.N.J.Q.T.U.L.L.J.G.G.S.J #                               ",
"                              h y.t.r.2.<.,.,.*.*.=.=.%.#.=.=.,.2.y.d.v.A.R.Q.W.T.T.I.J.G.F.N.x $                               ",
"                              Q a.r.r.0.2.<.,.,.:.:.=.*.%.=.=.=.<.q.i.v.J.W.U.J.J.J.U.U.L.L.z.q 7                               ",
"                            X ^ u.r.t.0.2.<.,.,.:.,.:.&.=.=.#.=.:.4.u.c.T.L.S.S.B.b.A.G.D.G.<.; f                               ",
"                            @ >.y.r.r.r.0.2.2.:.,.,.:.:.=.=.=.=.=.4.t.F.P.N.B.B.b.b.B.S.S.c.K = R                               ",
"                            u t.u.y.r.0.q.0.0.<.,.,.,.:.$.=.:.=.:.,.m.G.m.c.v.c.c.v.N.S.n. .b $                                 ",
"                          . g p.r.u.y.r.0.0.0.0.2.<.<.&.$.=.=.&.:.m.S.B.v.g.g.d.h.v.n.C.*.V z $                                 ",
"                          X 2 2.y.r.y.0.0.0.2.0.2.<.<.:.&.:.:.:.z.B.v.B.N.s.u.p.g.c.v.&.J V k #                                 ",
"                          o # 1 0.y.0.0.0.0.2.2.2.0.2.,.,.:.:.g.v.f.v.n.C.h.y.p.h.v.| S K V j #                                 ",
"                          O & # 1 1.u.0.2.2.2.0.2.<.0.<.,.:.f.c.p.h.v.v.B.b.p.s.h.| z Z S C r %                                 ",
"                        o + % $ # 1 1.y.0.0.2.2.2.2.0.f.g.c.f.u.f.h.v.v.n.b.s.s.} z b m S V 7 %                                 ",
"                        o + # % # # 1 _ y.r.y.p.f.h.h.s.p.a.p.f.f.c.v.v.v.b.b.E k c k m D V > #                                 ",
"                        = & # % # $ # 2 y.&.+.E K N a y y ! r.g.h.h.c.c.c.c.:.a z z z b Z V * #                                 ",
"                        8 8 8 8 : = $ 5 l 9 q y y e t r y J _ 1.p.c.h.f.c.#.Z J a a a z Z x &                                   ",
"                          8 8 8 0 0 0 N w y w w r a a r r a ^ _ _ r.h.c.%.N N A N a a c A z #                                   ",
"                            8 8 8 0 t M d b s a r r w w r 9 U _ / / 1.^ J V V V Z s z a C 7 #                                   ",
"                            8 8 8 0 N v n n M M v c a 6 w q l ) ! ( H 5 z Z A V V x a a N 3 #                                   ",
"                              8 8 s n v n n M M s F F v b s r W ~ P 5 5 5 i N C V V a a z *                                     ",
"                                t m s d n v d n n n n n n n d K U i i 5 , , 5 l V Z N a p *                                     ",
"                                  q ; ; ; - & $ & $ & & & $ & & & * 3 6 5 , , , i N J a < &                                     ",
"                                                = # % # # + + + + # # # & & * * * , p N < #                                     ",
"                                                                        # # + # # # + 1 <                                       ",
"                                                                                                                                ",
"                                                                                                                                ",
"                                                                                                                                ",
"                                                                                                                                ",
"                                                                                                                                ",
"                                                                                                                                ",
"                                                                                                                                ",
"                                                                                                                                ",
"                                                                                                                                ",
"                                                                                                                                ",
"                                                                                                                                ",
"                                                                                                                                ",
"                                                                                                                                ",
"                                                                                                                                "
};
