/* XPM */
static char *scroll1646671169[] = {
/* columns rows colors chars-per-pixel */
"64 64 203 2 ",
"   c None",
".  c #3F1E0C",
"X  c #481E09",
"o  c #43210E",
"O  c #4A210D",
"+  c #51260D",
"@  c #53290F",
"#  c #4E2511",
"$  c #462411",
"%  c #502712",
"&  c #542B14",
"*  c #592E15",
"=  c #572915",
"-  c #5B3116",
";  c #563018",
":  c #5D3319",
">  c #642E15",
",  c #6D2D15",
"<  c #722E16",
"1  c #792E14",
"2  c #613517",
"3  c #6C3217",
"4  c #61351A",
"5  c #6C351A",
"6  c #653B1C",
"7  c #6B3D1E",
"8  c #7B3117",
"9  c #753318",
"0  c #7A3519",
"q  c #733A1B",
"w  c #7C3A1C",
"e  c #693F21",
"r  c #653E27",
"t  c #6D411F",
"y  c #70431F",
"u  c #6E4322",
"i  c #694128",
"p  c #724624",
"a  c #7F4724",
"s  c #754925",
"d  c #794B25",
"f  c #764B28",
"g  c #7A4E2A",
"h  c #7E522C",
"j  c #744D31",
"k  c #7A5438",
"l  c #7E5941",
"z  c #833419",
"x  c #8C361A",
"c  c #833A1C",
"v  c #8D3A1C",
"b  c #92371A",
"n  c #933A1C",
"m  c #9C3B1C",
"M  c #983619",
"N  c #A33D1D",
"B  c #AA3D1D",
"V  c #A63817",
"C  c #B43B19",
"Z  c #923F21",
"A  c #9C3F20",
"S  c #A43F21",
"D  c #A93F20",
"F  c #A4411F",
"G  c #A9411D",
"H  c #BB441F",
"J  c #8D4323",
"K  c #874425",
"L  c #924222",
"P  c #9B4322",
"I  c #9D4C27",
"U  c #82552E",
"Y  c #86592F",
"T  c #8C522C",
"R  c #93532E",
"E  c #914F36",
"W  c #835732",
"Q  c #865931",
"!  c #8B5D33",
"~  c #875B3B",
"^  c #955835",
"/  c #A34323",
"(  c #AC4423",
")  c #A64928",
"_  c #AA4A29",
"`  c #B54322",
"'  c #B84623",
"]  c #B64826",
"[  c #BD4E2B",
"{  c #B84A28",
"}  c #A35D36",
"|  c #B55333",
" . c #8E6135",
".. c #8C623A",
"X. c #926437",
"o. c #936539",
"O. c #96693C",
"+. c #9B6C3D",
"@. c #9F703F",
"#. c #A16339",
"$. c #A66236",
"%. c #A1713F",
"&. c #C1411A",
"*. c #C3502C",
"=. c #D2512B",
"-. c #CE5E3C",
";. c #D05C3A",
":. c #835D43",
">. c #8C6545",
",. c #8B6445",
"<. c #926A45",
"1. c #946D4A",
"2. c #9F6F40",
"3. c #9E7040",
"4. c #9A724C",
"5. c #8F6B51",
"6. c #9A7455",
"7. c #997457",
"8. c #A86B48",
"9. c #A27343",
"0. c #A67846",
"q. c #A87946",
"w. c #A67A49",
"e. c #AD7E49",
"r. c #A57C55",
"t. c #B7664A",
"y. c #CA6547",
"u. c #B4854E",
"i. c #B9884F",
"p. c #AD8153",
"a. c #AB855E",
"s. c #B28552",
"d. c #BA8A52",
"f. c #B68A5A",
"g. c #BA8652",
"h. c #BB9058",
"j. c #AA896D",
"k. c #B38D64",
"l. c #BA9369",
"z. c #BA9A7D",
"x. c #BD9A77",
"c. c #C6894D",
"v. c #CA8B4F",
"b. c #C58E54",
"n. c #CB8E53",
"m. c #CA9157",
"M. c #CB945B",
"N. c #CD995E",
"B. c #C49359",
"V. c #D19B5E",
"C. c #CA9760",
"Z. c #CC9B63",
"A. c #CD9E68",
"S. c #C49763",
"D. c #D09C64",
"F. c #D19E6B",
"G. c #CFA26C",
"H. c #CFA063",
"J. c #D5A465",
"K. c #D4A56A",
"L. c #D7A86C",
"P. c #DAAA6D",
"I. c #D8A667",
"U. c #CFA671",
"Y. c #CBA57A",
"T. c #CBA578",
"R. c #D2A672",
"E. c #D4AA74",
"W. c #DAAD73",
"Q. c #D6AC7B",
"!. c #D6A77A",
"~. c #DEB273",
"^. c #DCB27D",
"/. c #E0B57C",
"(. c #E2B577",
"). c #B09783",
"_. c #BFA085",
"`. c #CEAB82",
"'. c #CAAD8C",
"]. c #D5AE82",
"[. c #DBB484",
"{. c #D6B18A",
"}. c #DCB68A",
"|. c #DFBA8B",
" X c #D5B084",
".X c #DFBB92",
"XX c #D8BB99",
"oX c #E3BB86",
"OX c #E5BE8A",
"+X c #E0BE94",
"@X c #DDC09F",
"#X c #E4C195",
"$X c #EAC594",
"%X c #E5C499",
"&X c #EECA99",
"*X c #E9C598",
"=X c #DFC3A1",
"-X c #E2C6A4",
";X c #ECCDA3",
":X c #E7CBAA",
">X c #EDD0AA",
",X c #F1D1A7",
"<X c #ECD5B9",
/* pixels */
"                                                                                                                                ",
"                                                                                                                                ",
"                                                                                                                                ",
"                                                                                          K.R.!.^.[.|.|.[.                      ",
"                                                                                    A.R.G.G.U.U.U.U.E.Q.[.}.                    ",
"                                                                                C.A.C.C.H.U.U.U.E.E.E.K.J.}.S.                  ",
"                                                                              F.M.b.M.A.U.U.E.E.E.E.E.K.^.7.k Q.                ",
"                                                                            K.b.b.M.A.G.R.E.E.E.E.E.L.L. XY.[.~.|.              ",
"                                                                          R.b.b.M.Z.F.R.E.E.E.E.W.L.L.K.L.P.J.J.L.[.            ",
"                                                                        T.Z.b.M.C.K.R.R.E.E.Q.E.W.L.L.I.J.L.L.J.L.OX            ",
"                                                                        G.b.M.C.A.U.R.E.E.W.E.W.L.L.I.L.P.I.J.~.*X].            ",
"                                                                      !.M.M.M.A.R.E.E.E.Q.W.W.W.L.J.L.I.I.J.oX;XT.              ",
"                                                                    ].Z.b.M.A.R.R.E.E.~.Q.W.L.L.L.J.P.J.J.$X;Xp.d               ",
"                                                                  R.R.n.M.F.K.U.R.E.Q.E.W.L.L.I.L.L.I.J.&X%X~ p Q               ",
"                                                                  ].M.M.D.K.R.E.E.E.^.W.E.L.L.I.J.J.J.OX=Xk s Q O.p.            ",
"                                                                ].K.M.D.K.R.R.E.Q.W.E.W.L.L.I.L.L.J.(.-X..d ! +.%.f.            ",
"                                                                W.M.M.A.R.R.E.E.Q.W.W.P.J.P.I.J.J.(.-X>.s ! +.9.q.f.            ",
"                                                               XZ.M.D.K.L.E.E.W.W.E.L.L.P.I.J.J.OX:X<.s ! +.9.q.q.s.            ",
"                                                            [.K.m.N.D.L.W.~.E.W.W.L.P.J.J.J.J.$X-X:.p ! +.9.0.0.9.              ",
"                                                          .Xg.$.} ^ O.9.p.A.W.W.L.P.P.P.J.P.;XXXW s ! +.9.0.0.3.4.              ",
"                                                          } b b n b b n P R w.L.P.P.P.J.P.,X'.d d  .+.9.9.9.3.<.                ",
"                                                      m m M m m m N m n v m Z O.K.P.J.P.,Xz.p d ! +.9.9.3.@...<.                ",
"                                                    n m m m m m m n v n B v D L w.P.~.;Xj.p U  .+.2.9.+.+.Q                     ",
"                                                  B B N V N m m v n ( v J ` m ' T E.>X7.p U ! +.9.9.+.o.h                       ",
"                                                N C V M v n m G ` n n [ F P H ) ) k.1.p Y X.+.9.9.2.! s                         ",
"                                            m C V L X.0.q.9.@. .J H &.v =.v [ F | a f Q X.+.9.9.O.U                             ",
"                                            N I 9.d.J.J.J.H.I.I.s.g ] *._ ' L H _ L h X.+.0.9.o.h                               ",
"                                          r.r.m.V.K.L.R.L.I.P.P.(.N.h ;.F [ J ] P P h +.9.9.! U                                 ",
"                                      [.[.K.M.V.K.R.W.Q.W.P.P.~.~.(.h.P H ) m ) n J h 9.3.! Q                                   ",
"                                  oXOX!.M.n.V.F.R.R.W.^.~.W.(.(.P.~.P.#.H L F A m n U o.U                                       ",
"                              +X%X!.M.n.n.D.F.L.W.E.W.W.W.P.(.$X&X/.~.i.' n m x M n p f                                         ",
"                        +X%X}.R.n.c.n.M.D.K.W.!.W.^.~.W.P.~.P.,X`.$XB.Y ' v M v n n p                                           ",
"                    #X+X!.M.F.!.b.b.m.H.U.U.E.E.W.W.P.P.~.P.P.&Xx.f u 6 ( x b x M A                                             ",
"                }.%X.X{.!.{.z.{.R.E.G.S.G.U.E.L.P.P.~.W.~.~.I.oXT.: u d F b n n 1 T                                             ",
"              %X<X-X_.j.7.l : :.<.z.:X:XE.H.G.K.I.P.W.P.P.J.^.Q.p t h d N n n w ,                                               ",
"            ;X>Xj.r + O O % - - * : j ).<X[.N.J.L.I.P.J.J.~. Xf 6 h ..a N 1 3 > 9                                               ",
"            %X~ X O % % - 6 6 6 4 6 4 & l -XoXH.K.J.J.Z.L.Q.j 4 h Q ! q 8 > * *                                                 ",
"          $X<.X O + 7 Y o.+.+.X.Y t 4 4 O k >XE.N.Z.N.K.`.h : h U o.h > , * 0 ( ( v v z                                         ",
"        R.S.% # % h O.Y p p p U o.%.U 4 4 @ 5.>XM.B.S. XW 4 h U ! +.s > 2 0 G ' A ( A / ) Z S x                                 ",
"        J.o.O # U ! * # # # # # & u @. .6 : % z.].d.].>.: d U  .@.+.  c 8               m A A ( (                               ",
"        H.p $ 6 2.& & & # & & ; - - t +.Y 4 - i  XY.6.2 s U  .+.9.    m ,                   Z v m m                             ",
"      e.B.: # W h # & # * ; f U g : : t q.d - @ 6.6.: s U  .+.9.      N ,               M 1 1 z v Z v c                         ",
"      i.s.= & X.6 & # 6 X.: 6 e h  .4 -  .@.4 : 4 5 s U  .@.@.        x <             b + 1 S A n v n m m n                     ",
"      i.w.% : O.: & & O.f & # # O h Y : t h.g 6 6 p U ! +.@.          b <           x > z *.z o . # = > w m A                   ",
"      0.9.= 6 O.- % 7 o.& % % % % &  .6 : k.1.2 p g ! +.9.            v 8         m n 1 y.8.X 5 0 c c w 5 5 n m                 ",
"        9.& 4 <.: & u o.& % % ; % % Y u - r.a.6 g Q O.+.+.              x =     < < b B -.; E | v c 8 9 c 5 5 n n               ",
"        e.4 - +.6 % ; X.h : p : % # Y u - 4.k.y U o.+.+.                b z = X , m z ` [ o P m > o # & J c : v A               ",
"        u.u &  .U % & t Y h 6 % % %  .t - 4.l.U X.+.%.                    n M x x N w ( _ o v A > o : : L J 5 5 S               ",
"        d.Q % t +.: & & * - & & % 4 +.7 % 6.k.X.O.+.                        N B N   q / ) o v m 3 o : * K Z q 6 ( w             ",
"          0.: - Y  .- & & - * & % W U & & a.f.o.+.                                    / / $ 0 N v $ & : E J q 3 ] w             ",
"          d.f & : Q O.p * & & ; g o.& # u l.0.+.                                      n / > & n N 9 & 6 v c > ~ y.9             ",
"            0.- - - s o.O.!  .o.! * % & O.s.+.                                        w D v ; 4 v A v v n 0 * t.| 5             ",
"            i...% - - - 7 s f 6 # % # p u.O.O.                                          v ( c & * 5 w w 5 * K ' v               ",
"              d. .- & & % & & & = # 4 w.+.Q                                               n B c 4 * ; ; : K _ m q               ",
"                d.+.7 & * & % % % 6 q.9.                                                    n G A x z c n D A w                 ",
"                  d.u.O.Q f u p Q u.+.                                                        w n A A m n c 5                   ",
"                      q.i.d.i.u.e.                                                                                              ",
"                                                                                                                                ",
"                                                                                                                                ",
"                                                                                                                                ",
"                                                                                                                                ",
"                                                                                                                                ",
"                                                                                                                                ",
"                                                                                                                                "
};
