/* XPM */
static char *death7_l1647516994[] = {
/* columns rows colors chars-per-pixel */
"64 64 10 1 ",
"  c None",
". c black",
"X c #0E0C0C",
"o c #171516",
"O c #271F1B",
"+ c #323232",
"@ c #373334",
"# c #673931",
"$ c #595757",
"% c #807B7A",
/* pixels */
"                                                                ",
"                                                                ",
"                  ++++++++++++                                  ",
"                 %%%%$$$$$$$$$+++                               ",
"                    %%%%$$$$$$$$$++                             ",
"                      %%%%%$$$$$$$$++                           ",
"                        %%%%%%$$$$$$$+                          ",
"                          %%%%%%$$$$$$++                        ",
"                            %%%%%%$$$$$$+                       ",
"                             %%%%%%%$$$$$+                      ",
"                              %%%%%%%$$$$$+                     ",
"                               XXXX%%%$$$$+                     ",
"                               XXXXXX%%$OOO                     ",
"                               XXXXXXX%OOO                      ",
"                              XXXXXXXX%O                        ",
"                              XXXXXXXXX                         ",
"                              X#X#XXXXX                         ",
"                              XXXXXXXXX                         ",
"                             OXXXXXXXXX                         ",
"                          OOOOXXXXXXXXX                         ",
"                        OOOOXXXXXXXXXXXXX                       ",
"                      OOOO XXXXXXXXXXXXXXXX                     ",
"                    OOOO  XXXXXXXXXXXXXXXXXX                    ",
"                 ooOOO    XXXXXXXXXXXXXXXXXXX                   ",
"                o@oo      XXXXXXXXXXXXXXXXXXXX                  ",
"              OOoo@o      @XXXXXXXXXXXXXXXXXXXX                 ",
"            OOOO oo@o     @oXXXXXXXXXXXXXXXXXXX                 ",
"          OOOO     +oo   @oooXXXXXXXXXXXXXXXXXX                 ",
"        OOOO        @o@  @@ @oXXXXXXXXXXXXXXXXX                 ",
"      OOOO           @@o@o  @@XXXXXXXXXXXXXXXXX                 ",
"    OOOO              @o@@  @o@ XXXXXXXXXXXXXXX                 ",
"  OOOO                 o@   @@o@@XXXXXXXXXXXXXX                 ",
"  OO                        o @oo@XXXXXXXXXXXX                  ",
"                            @o @@oo XXXXXXXXXX                  ",
"                             @ooo@ooXXXXXXXXXX                  ",
"                              @@ oo@XXXXXXXXXXX                 ",
"                                ooo  XXXXXXXXXX                 ",
"                                oo . XXXXXXXXXX                 ",
"                               .ooo   XXXXXXXXX                 ",
"                               . ooo  XXXXXXXXX                 ",
"                               . ooo  XXXXXXXXX                 ",
"                                .oo   XXXXXXXX                  ",
"                                  o   XXXXXXXX                  ",
"                                  o   XXXXXXXX                  ",
"                                  o   XXXXXXX                   ",
"                                  o   XXXXXXX                   ",
"                                  o   XXXXXXX                   ",
"                                  .   XXXXXX                    ",
"                                  .   XXXXXX                    ",
"                                      XXXXXX                    ",
"                                      XXXXX                     ",
"                                      XXXXX                     ",
"                                      XXXXX                     ",
"                                      XXXX                      ",
"                                      XXXX                      ",
"                                      XXX                       ",
"                                      XX                        ",
"                                       X                        ",
"                                       X                        ",
"                                       X                        ",
"                                                                ",
"                                                                ",
"                                                                ",
"                                       X                        "
};
