/* XPM */
static char *death6_r1647516994[] = {
/* columns rows colors chars-per-pixel */
"64 64 10 1 ",
"  c None",
". c black",
"X c #0E0C0C",
"o c #171516",
"O c #271F1B",
"+ c #323232",
"@ c #373334",
"# c #673931",
"$ c #595757",
"% c #807B7A",
/* pixels */
"                                                                ",
"                                                                ",
"                                                                ",
"                                ++++++++++++                    ",
"                             +++$$$$$$$$$%%%%                   ",
"                           ++$$$$$$$$$%%%%                      ",
"                         ++$$$$$$$$%%%%%                        ",
"                        +$$$$$$$%%%%%%                          ",
"                      ++$$$$$$%%%%%%                            ",
"                     +$$$$$$%%%%%%                              ",
"                    +$$$$$%%%%%%%                               ",
"                   +$$$$$%%XXX%%                                ",
"                   +$$$$%XXXXXX                                 ",
"                   OOO$%XXXXXXX                                 ",
"                    OOO%XXXXXXXX                                ",
"                      OXXXXXXXXX                                ",
"                       XXXXX#X#X                                ",
"                       XXXXXXXXX                                ",
"                       XXXXXXXXX                                ",
"                       XXXXXXXXXO                               ",
"                       XXXXXXXXXOOOO                            ",
"                     XXXXXXXXXXXXXOOOO                          ",
"                   XXXXXXXXXXXXXXXX OOOO                        ",
"                  XXXXXXXXXXXXXXXXXX  OOOO                      ",
"                 XXXXXXXXXXXXXXXXXXX    OOOoo                   ",
"                XXXXXXXXXXXXXXXXXXXX      oo@o                  ",
"               XXXXXXXXXXXXXXXXXXXX@      o@ooOO                ",
"               XXXXXXXXXXXXXXXXXXXo@     o@oo OOOO              ",
"               XXXXXXXXXXXXXXXXXX@oo@   oo+     OOOO            ",
"               XXXXXXXXXXXXXXXXX@@ @@  @o@        OOOO          ",
"               XXXXXXXXXXXXXXX @o@  o@o@@           OOOO        ",
"               XXXXXXXXXXXXXX@@o@@  @@o@              OOOO      ",
"               XXXXXXXXXXXXX@oo@ o   @o                 OOOO    ",
"               XXXXXXXXXXXXoo@@ o@                        OO    ",
"               XXXXXXXXXXXoo@ooo@                               ",
"                XXXXXXXXXX@oo @@                                ",
"               XXXXXXXXXX  ooo                                  ",
"               XXXXXXXXXX . oo                                  ",
"               XXXXXXXXX   ooo.                                 ",
"               XXXXXXXXX  ooo .                                 ",
"               XXXXXXXXX  ooo .                                 ",
"                XXXXXXXX   oo.                                  ",
"                XXXXXXXX   o                                    ",
"                XXXXXXXX   o                                    ",
"                 XXXXXXXX  o                                    ",
"                 XXXXXXXX  o                                    ",
"                  XXXXXXXX o                                    ",
"                   XXXXXXX .                                    ",
"                   XXXXXXX .                                    ",
"                   XXXXXXX                                      ",
"                    XXXXXX                                      ",
"                    XXXXXX                                      ",
"                     XXXXX                                      ",
"                      XXXX                                      ",
"                      XXXX                                      ",
"                      XXXX                                      ",
"                      XXXX                                      ",
"                      XXX                                       ",
"                      XXX                                       ",
"                      XXX                                       ",
"                      XX                                        ",
"                      XX                                        ",
"                     XX                                         ",
"                                                                "
};
