/* XPM */
static char *death3_r1647516993[] = {
/* columns rows colors chars-per-pixel */
"64 64 10 1 ",
"  c None",
". c black",
"X c #0E0C0C",
"o c #171516",
"O c #271F1B",
"+ c #323232",
"@ c #373334",
"# c #673931",
"$ c #595757",
"% c #807B7A",
/* pixels */
"                                                                ",
"                                                                ",
"                                ++++++++++++                    ",
"                             +++$$$$$$$$$%%%%                   ",
"                           ++$$$$$$$$$%%%%                      ",
"                         ++$$$$$$$$%%%%%                        ",
"                        +$$$$$$$%%%%%%                          ",
"                      ++$$$$$$%%%%%%                            ",
"                     +$$$$$$%%%%%%                              ",
"                    +$$$$$%%%%%%%                               ",
"                   +$$$$$%%%%%%%                                ",
"                   +$$$$%%%XXXX                                 ",
"                   OOO$%%XXXXXX                                 ",
"                    OOO%XXXXXXX                                 ",
"                      O%XXXXXXXX                                ",
"                       XXXXXXXXX                                ",
"                       XXXXX#X#X                                ",
"                       XXXXXXXXX                                ",
"                       XXXXXXXXXO                               ",
"                       XXXXXXXXXOOOO                            ",
"                     XXXXXXXXXXXXXOOOO                          ",
"                   XXXXXXXXXXXXXXXX OOOO                        ",
"                  XXXXXXXXXXXXXXXXXX  OOOO                      ",
"                 XXXXXXXXXXXXXXXXXXX    OOOoo                   ",
"                XXXXXXXXXXXXXXXXXXXX      oo@o                  ",
"               XXXXXXXXXXXXXXXXXXXX@      o@ooOO                ",
"               XXXXXXXXXXXXXXXXXXXo@     o@oo OOOO              ",
"               XXXXXXXXXXXXXXXXXXooo@   oo+     OOOO            ",
"               XXXXXXXXXXXXXXXXXo@ @@  @o@        OOOO          ",
"               XXXXXXXXXXXXXXXXX@@  o@o@@           OOOO        ",
"               XXXXXXXXXXXXXXX @o@  @@o@              OOOO      ",
"               XXXXXXXXXXXXXX@@o@@   @o                 OOOO    ",
"                XXXXXXXXXXXX@oo@ o                        OO    ",
"               XXXXXXXXXXXXoo@@ o@                              ",
"               XXXXXXXXXXXoo@ooo@                               ",
"                XXXXXXXXXX@oo @@                                ",
"                 XXXXXXXXXXooo                                  ",
"                 XXXXXXXXX.Xoo                                  ",
"                  XXXXXXXXXooo.                                 ",
"                  XXXXXXXXooo .                                 ",
"                  XXXXXXXXooo .                                 ",
"                   XXXXXXXXoo.                                  ",
"                   XXXXXXXXo                                    ",
"                  XXXXXXXXXo                                    ",
"                 XXXXXXXXX o                                    ",
"                 XXXXXXXXX o                                    ",
"                XXXXXXXXX  o                                    ",
"                XXXXXXXXX  .                                    ",
"                XXXXXXXX   .                                    ",
"                XXXXXXXX                                        ",
"                 XXXXXX                                         ",
"                 XXXXXX                                         ",
"                  XXXXX                                         ",
"                   XXXX                                         ",
"                    XXXX                                        ",
"                    XXXX                                        ",
"                     XXX                                        ",
"                     XXX                                        ",
"                      XX                                        ",
"                      XX                                        ",
"                       X                                        ",
"                       XX                                       ",
"                        X                                       ",
"                                                                "
};
