/* XPM */
static char *death3_l1647516993[] = {
/* columns rows colors chars-per-pixel */
"64 64 10 1 ",
"  c None",
". c black",
"X c #0E0C0C",
"o c #171516",
"O c #271F1B",
"+ c #323232",
"@ c #373334",
"# c #673931",
"$ c #595757",
"% c #807B7A",
/* pixels */
"                   ++++++++++++                                 ",
"                  %%%%$$$$$$$$$+++                              ",
"                     %%%%$$$$$$$$$++                            ",
"                       %%%%%$$$$$$$$++                          ",
"                         %%%%%%$$$$$$$+                         ",
"                           %%%%%%$$$$$$++                       ",
"                             %%%%%%$$$$$$+                      ",
"                              %%%%%%%$$$$$+                     ",
"                               %%%%%%%$$$$$+                    ",
"                                XXXX%%%$$$$+                    ",
"                                XXXXXX%%$OOO                    ",
"                                XXXXXXX%OOO                     ",
"                               XXXXXXXX%O                       ",
"                               XXXXXXXXX                        ",
"                               X#X#XXXXX                        ",
"                               XXXXXXXXX                        ",
"                              OXXXXXXXXX                        ",
"                           OOOOXXXXXXXXX                        ",
"                         OOOOXXXXXXXXXXXXX                      ",
"                       OOOO XXXXXXXXXXXXXXXX                    ",
"                     OOOO  XXXXXXXXXXXXXXXXXX                   ",
"                  ooOOO    XXXXXXXXXXXXXXXXXXX                  ",
"                 o@oo      XXXXXXXXXXXXXXXXXXXX                 ",
"               OOoo@o      @XXXXXXXXXXXXXXXXXXXX                ",
"             OOOO oo@o     @oXXXXXXXXXXXXXXXXXXX                ",
"           OOOO     +oo   @oooXXXXXXXXXXXXXXXXXX                ",
"         OOOO        @o@  @@ @oXXXXXXXXXXXXXXXXX                ",
"       OOOO           @@o@o  @@XXXXXXXXXXXXXXXXX                ",
"     OOOO              @o@@  @o@ XXXXXXXXXXXXXXX                ",
"   OOOO                 o@   @@o@@XXXXXXXXXXXXXX                ",
"   OO                        o @oo@XXXXXXXXXXXX                 ",
"                             @o @@ooXXXXXXXXXXXX                ",
"                              @ooo@ooXXXXXXXXXXX                ",
"                               @@ oo@XXXXXXXXXX                 ",
"                                 oooXXXXXXXXXX                  ",
"                                 ooX.XXXXXXXXX                  ",
"                                .oooXXXXXXXXX                   ",
"                                . oooXXXXXXXX                   ",
"                                . oooXXXXXXXX                   ",
"                                 .ooXXXXXXXX                    ",
"                                   oXXXXXXXX                    ",
"                                   oXXXXXXXXX                   ",
"                                   o XXXXXXXXX                  ",
"                                   o XXXXXXXXX                  ",
"                                   o  XXXXXXXXX                 ",
"                                   .  XXXXXXXXX                 ",
"                                   .   XXXXXXXX                 ",
"                                       XXXXXXXX                 ",
"                                        XXXXXX                  ",
"                                        XXXXXX                  ",
"                                        XXXXX                   ",
"                                        XXXX                    ",
"                                       XXXX                     ",
"                                       XXXX                     ",
"                                       XXX                      ",
"                                       XXX                      ",
"                                       XX                       ",
"                                       XX                       ",
"                                       X                        ",
"                                      XX                        ",
"                                      X                         ",
"                                                                ",
"                                                                ",
"                                                                "
};
