/* XPM */
static char *death1_l1647516992[] = {
/* columns rows colors chars-per-pixel */
"64 64 10 1 ",
"  c None",
". c black",
"X c #0E0C0C",
"o c #171516",
"O c #271F1B",
"+ c #323232",
"@ c #373334",
"# c #673931",
"$ c #595757",
"% c #807B7A",
/* pixels */
"                                                                ",
"                                                                ",
"                                                                ",
"                  ++++++++++++                                  ",
"                 %%%%$$$$$$$$$+++                               ",
"                    %%%%$$$$$$$$$++                             ",
"                      %%%%%$$$$$$$$++                           ",
"                        %%%%%%$$$$$$$+                          ",
"                          %%%%%%$$$$$$++                        ",
"                            %%%%%%$$$$$$+                       ",
"                             %%%%%%%$$$$$+                      ",
"                              %%XXX%%$$$$$+                     ",
"                               XXXXXX%$$$$+                     ",
"                               XXXXXXX%$OOO                     ",
"                              XXXXXXXX%OOO                      ",
"                              XXXXXXXXXO                        ",
"                              X#X#XXXXX                         ",
"                              XXXXXXXXX                         ",
"                              XXXXXXXXX                         ",
"                             OXXXXXXXXX                         ",
"                          OOOOXXXXXXXXX                         ",
"                        OOOOXXXXXXXXXXXXX                       ",
"                      OOOO XXXXXXXXXXXXXXXX                     ",
"                    OOOO  XXXXXXXXXXXXXXXXXX                    ",
"                 ooOOO    XXXXXXXXXXXXXXXXXXX                   ",
"                o@oo      XXXXXXXXXXXXXXXXXXXX                  ",
"              OOoo@o      @XXXXXXXXXXXXXXXXXXXX                 ",
"            OOOO oo@o     @oXXXXXXXXXXXXXXXXXXX                 ",
"          OOOO     +oo   @oo@XXXXXXXXXXXXXXXXXX                 ",
"        OOOO        @o@  @@ @@XXXXXXXXXXXXXXXXX                 ",
"      OOOO           @@o@o  @o@ XXXXXXXXXXXXXXX                 ",
"    OOOO              @o@@  @@o@@XXXXXXXXXXXXXX                 ",
"  OOOO                 o@   o @oo@XXXXXXXXXXXXX                 ",
"  OO                        @o @@oo XXXXXXXXXX                  ",
"                             @ooo@ooXXXXXXXXXX                  ",
"                              @@ oo@ XXXXXXXXX                  ",
"                                ooo  XXXXXXXXX                  ",
"                                oo . XXXXXXXXX                  ",
"                               .ooo  XXXXXXXXX                  ",
"                               . ooo  XXXXXXXX                  ",
"                               . ooo XXXXXXXXX                  ",
"                                .oo  XXXXXXXXX                  ",
"                                  o  XXXXXXXXX                  ",
"                                  o  XXXXXXXX                   ",
"                                  o  XXXXXXXX                   ",
"                                  o  XXXXXXXX                   ",
"                                  o XXXXXXXXX                   ",
"                                  . XXXXXXXX                    ",
"                                  . XXXXXXXX                    ",
"                                     XXXXXXX                    ",
"                                    XXXXXXXX                    ",
"                                     XXXXXXX                    ",
"                                     XXXXXXX                    ",
"                                      XXXXX                     ",
"                                      XXXXX                     ",
"                                      XXXXX                     ",
"                                      XXXX                      ",
"                                       XXX                      ",
"                                       XXX                      ",
"                                       XX                       ",
"                                       XX                       ",
"                                       XX                       ",
"                                       X                        ",
"                                       X                        "
};
