/* XPM */
static char *player_r_81647118561[] = {
/* columns rows colors chars-per-pixel */
"64 64 13 1 ",
"  c None",
". c black",
"X c #211A2E",
"o c #41243C",
"O c #6F322D",
"+ c #AF2C2C",
"@ c #955638",
"# c #DF7425",
"$ c #D8A162",
"% c #857F8A",
"& c #9BAFBA",
"* c #EFC39A",
"= c #CBDBFB",
/* pixels */
"                                                                ",
"                                                                ",
"                                                                ",
"                                                                ",
"                                                                ",
"                                                                ",
"                                                                ",
"                                                                ",
"                            @@@@@@@O@@@                         ",
"                           @@@@@@@@@O$@@@                       ",
"                          @@@@@@@@@@@O$@@@                      ",
"                         O@@@@@@@@@@@O@@@@@                     ",
"                        O@@@@@@@@@@@@O@@@@@@                    ",
"                       .@@@@@@@@@@@@@O@@@@@@                    ",
"                      .O@@@@@@.....@@@O@.....                   ",
"                     .OO@@@@@..%===&OOO.&&&%..                  ",
"                    .OOO@@@@..&=====&..&&&&&%..                 ",
"                   .OOOO@@@oo%=======..&&&&&&..                 ",
"                  .OOOOO@..oo%=======..&&&&&&..                 ",
"                 .OOOOO....oo%======%...&&&&&..                 ",
"                 .OOO......o..%====%.....&&&%..                 ",
"                 ......O@@@@........***........                 ",
"                 ....OOO@@@@#......*****.....O.                 ",
"                  .OOOO@@@#..$$$**********$$OO.                 ",
"                 .OOOOO@@#..@....@$*****$...OO.                 ",
"                 ...OO@@#..*.......$****....oO.                 ",
"                 o++OO@@$.**OOOOOOOO$$$OOOOOoO.                 ",
"                .+o.OO@@$O**@O$$$OO$$$@@$$$Ooo.                 ",
"                .+o+OO@@$O****@..@$$$$$@.@$oo.                  ",
"                .+++OOO@$@****..=.$$$$$@=.$.o.                  ",
"                .+++OOOO$@****....$$$+$@..$O.                   ",
"                .+++OOOO$@****....$$$++$..$O.                   ",
"                 o++OOOO$@****....**+++++.*@.                   ",
"                  o+OOOO@$@**@@@@***++=+++*$.                   ",
"                   .OOOOO$@*********.+++++*$.                   ",
"                   .OOOOO@@$$$$$****@...O**@.                   ",
"                   .OOOOOO.@$$OOO***$@@@@$$..                   ",
"                    .OOOOO..$$$$$@....O@$$...                   ",
"                    .OOOOO...$$$$$$$$$$$@....                   ",
"                    .OOOOO&&+.@$$$$$$$@......                   ",
"                     .OOOO..=+...OOOOOO......                   ",
"                      .......&++#######. ...                    ",
"                        O@@..&=++#####+%                        ",
"                       @@O..XX&=======&%X                       ",
"                      .OO..XXXX&======&XX                       ",
"                      O%%%%XXXOOXX....XXX                       ",
"                     o%%%%%%...@@@O===OO.  oo                   ",
"                    o%%%%.......@@@O=OO@.Xo&&X                  ",
"                    o%%%........@@@@OO@@oXX&%X                  ",
"                    o%%.......&&.@@@@O@@o...XXX                 ",
"                    .%o.......&&.@@@@%O@O....&%o                ",
"                     .....&=%...@@@@@OO@O....%%o                ",
"                      ....&&....@@@@@%O@@....oo                 ",
"                      .........@@@@@@OO@@...X%.                 ",
"                      ...&&...@@@@@@@%O@@..%o%.                 ",
"                       ..&&...@@@OO@@OO@.XX%%..                 ",
"                        ......@@OOOOOOO.. XXX                   ",
"                           ...@@oooooo...                       ",
"                           ..O@O   ...oo                        ",
"                           .OOOO   .oooo                        ",
"                           OOOO    .ooo                         ",
"                           O$$$   O%%%                          ",
"                           O$$$   O%%@                          ",
"                           XXXX   XXXXXX                        "
};
