/* XPM */
static char *player_l_81647118906[] = {
/* columns rows colors chars-per-pixel */
"64 64 13 1 ",
"  c None",
". c black",
"X c #211A2E",
"o c #41243C",
"O c #6F322D",
"+ c #AF2C2C",
"@ c #955638",
"# c #DF7425",
"$ c #D8A162",
"% c #857F8A",
"& c #9BAFBA",
"* c #EFC39A",
"= c #CBDBFB",
/* pixels */
"                                                                ",
"                                                                ",
"                                                                ",
"                                                                ",
"                                                                ",
"                                                                ",
"                                                                ",
"                                                                ",
"                         @@@O@@@@@@@                            ",
"                       @@@$O@@@@@@@@@                           ",
"                      @@@$O@@@@@@@@@@@                          ",
"                     @@@@@O@@@@@@@@@@@O                         ",
"                    @@@@@@O@@@@@@@@@@@@O                        ",
"                    @@@@@@O@@@@@@@@@@@@@.                       ",
"                   .....@O@@@.....@@@@@@O.                      ",
"                  ..%&&&.OOO&===%..@@@@@OO.                     ",
"                 ..%&&&&&..&=====&..@@@@OOO.                    ",
"                 ..&&&&&&..=======%oo@@@OOOO.                   ",
"                 ..&&&&&&..=======%oo..@OOOOO.                  ",
"                 ..&&&&&...%======%oo....OOOOO.                 ",
"                 ..%&&&.....%====%..o......OOO.                 ",
"                 ........***........@@@@O......                 ",
"                 .O.....*****......#@@@@OOO....                 ",
"                 .OO$$**********$$$..#@@@OOOO.                  ",
"                 .OO...$*****$@....@..#@@OOOOO.                 ",
"                 .Oo....****$.......*..#@@OO...                 ",
"                 .OoOOOOO$$$OOOOOOOO**.$@@OO++o                 ",
"                 .ooO$$$@@$$$OO$$$O@**O$@@OO.o+.                ",
"                  .oo$@.@$$$$$@..@****O$@@OO+o+.                ",
"                  .o.$.=@$$$$$.=..****@$@OOO+++.                ",
"                   .O$..@$+$$$....****@$OOOO+++.                ",
"                   .O$..$++$$$....****@$OOOO+++.                ",
"                   .@*.+++++**....****@$OOOO++o                 ",
"                   .$*+++=++***@@@@**@$@OOOO+o                  ",
"                   .$*+++++.*********@$OOOOO.                   ",
"                   .@**O...@****$$$$$@@OOOOO.                   ",
"                   ..$$@@@@$***OOO$$@.OOOOOO.                   ",
"                   ...$$@O....@$$$$$..OOOOO.                    ",
"                   ....@$$$$$$$$$$$...OOOOO.                    ",
"                   ......@$$$$$$$@.+&&OOOOO.                    ",
"                   ......OOOOOO...+=..OOOO.                     ",
"                    ... .#######++&.......                      ",
"                        %+#####++=&..@@O                        ",
"                       X%&=======&XX..O@@                       ",
"                       XX&======&XXXX..OO.                      ",
"                       XXX....XXOOXXX%%%%O                      ",
"                   oo  .OO===O@@@...%%%%%%o                     ",
"                  X&&oX.@OO=O@@@.......%%%%o                    ",
"                  X%&XXo@@OO@@@@........%%%o                    ",
"                 XXX...o@@O@@@@.&&.......%%o                    ",
"                o%&....O@O%@@@@.&&.......o%.                    ",
"                o%%....O@OO@@@@@...%=&.....                     ",
"                 oo....@@O%@@@@@....&&....                      ",
"                 .%X...@@OO@@@@@@.........                      ",
"                 .%o%..@@O%@@@@@@@...&&...                      ",
"                 ..%%XX.@OO@@OO@@@...&&..                       ",
"                   XXX ..OOOOOOO@@......                        ",
"                       ...oooooo@@...                           ",
"                        oo...   O@O..                           ",
"                        oooo.   OOOO.                           ",
"                         ooo.    OOOO                           ",
"                          %%%O   $$$O                           ",
"                          @%%O   $$$O                           ",
"                        XXXXXX   XXXX                           "
};
