/* XPM */
static char *player_r_31647118561[] = {
/* columns rows colors chars-per-pixel */
"64 64 13 1 ",
"  c None",
". c black",
"X c #211A2E",
"o c #41243C",
"O c #6F322D",
"+ c #AF2C2C",
"@ c #955638",
"# c #DF7425",
"$ c #D8A162",
"% c #857F8A",
"& c #9BAFBA",
"* c #EFC39A",
"= c #CBDBFB",
/* pixels */
"                                                                ",
"                                                                ",
"                                                                ",
"                                                                ",
"                                                                ",
"                                                                ",
"                                                                ",
"                                                                ",
"                           @@@@@@@@O@@@@                        ",
"                          @@@@@@@@@@O$@@@@                      ",
"                         O@@@@@@@@@@@O$@@@@                     ",
"                         O@@@@@@@@@@@O@@@@@@                    ",
"                        O@@@@@@@@@@@@O@@@@@@                    ",
"                       .@@@@@@@@@@@@@O@@@@@@@                   ",
"                      .O@@@@@@.oooo@@@O@oooo.                   ",
"                     .OO@@@@@..&====.OO.&&&%%.                  ",
"                    .OOO@@@@..=======..&&&&&%..                 ",
"                   .OOOO@@@oo%=======..&&&&&&..                 ",
"                  .OOOOO@..oo%======&..&&&&&&..                 ",
"                 .OOOOO....oo%&====&%...%&&&%..                 ",
"                 .OOO......o..%&&&&%OOO..%%%%..                 ",
"                 ......O@@@@........***........                 ",
"                 ....OOO@@@@#OOOOOO*****OOOOOO.                 ",
"                  .OOOO@@@#.@@@@@$$*****$@@$OO.                 ",
"                 .OOOOO@@#.........$****....OO.                 ",
"                 ..+OO@@#..*OOOOOOOO$$$OOOO.oO.                 ",
"                 o++OO@@$.**@O@$$OO$$$@@@$@OoO.                 ",
"                .+o.OO@@$O****@OO@$$$$$@O@$Ooo.                 ",
"                .+o+OO@@$O****O.=O$$$$$@=O$oo.                  ",
"                .+++OOO@$@****..%.$$$+$@%.$.o.                  ",
"                .+++OOOO$@****....$$$++$..$O.                   ",
"                .+++OOOO$@$***....**+++++.*O.                   ",
"                 o++OOOO@$@**$@@@***++&+++*$.                   ",
"                  o+OOOO@$@***$*****.+++++*$.                   ",
"                   .OOOOO$@*$$$$****O...O#*@.                   ",
"                   .OOOOO@@$$$OO$$**@OOOO**@.                   ",
"                    OOOOOO.@$$$$@O....O@$$@..                   ",
"                    .OOOOO..$$$$$$$###$$$@...                   ",
"                    .OOOOO...@$$$$$$$$$$O....                   ",
"                     OOOOO%&&.O@#####@@......                   ",
"                     .OOOO..=#...OOOOOO......                   ",
"                      .......&%+#######. ..                     ",
"                        O@@..&=+++####+%.                       ",
"                       @@O..XX&=======&%X                       ",
"                      .OO..XXXX&======&XX                       ",
"                      O%%%OXXXOOXX..%%XXX                       ",
"                     o%%%%%%...@@@O===OO.  %%                   ",
"                    o%%%%OO.....@@@O%OO@.Xo&&X                  ",
"                    o%%%.........@@@OO@@XXX%&X                  ",
"                    o%%.......&%.@@@@%@@O...XX%X                ",
"                    .%o.......&&.@@@@OO@@....X%%                ",
"                     ....%=&.....@@@@%O@@....X%%                ",
"                      ...%&.....O@@@@OO@@....oo                 ",
"                      .........@@@@@@%O@@...X%%                 ",
"                      ..%&%...@@@@@@@OO@@..%%%%                 ",
"                       ..&&...@@@OO@@OO@.XX%%..                 ",
"                        ......@@OOOOOOO.. XXX                   ",
"                           ...@@oooooo...                       ",
"                           ..O@O   ...oo                        ",
"                           .OOO    .ooo                         ",
"                           OOOO    .ooo                         ",
"                           O$$$   O%%%                          ",
"                           O@$$   O%%@                          ",
"                           XXXX   XXXXXX                        "
};
