/* XPM */
static char *player1r1646682894[] = {
/* columns rows colors chars-per-pixel */
"64 64 13 1 ",
"  c None",
". c black",
"X c #211A2E",
"o c #41243C",
"O c #6F322D",
"+ c #AF2C2C",
"@ c #955638",
"# c #DF7425",
"$ c #D8A162",
"% c #857F8A",
"& c #9BAFBA",
"* c #EFC39A",
"= c #CBDBFB",
/* pixels */
"                                                                ",
"                                                                ",
"                                                                ",
"                                                                ",
"                                                                ",
"                                                                ",
"                                                                ",
"                                                                ",
"                        @@O@@@@@@@                              ",
"                       @$O@@@@@@@@@@                            ",
"                      @$O@@@@@@@@@@@@                           ",
"                     @@@O@@@@@@@@@@@@@                          ",
"                    @@@@O@@@@@@@@@@@@@.                         ",
"                   @@@@O@@@@@@@@@@@@@@@.                        ",
"                   ....O@@@.....@@@@@@@@.                       ",
"                  .%&&..OO&====..@@@@@@@O.                      ",
"                 .%&&&&..&======..@@@@@OOO.                     ",
"                 .&&&&&..=======...@@@@OOOO.                    ",
"                ..&&&&&..=======.....@@OOOOO.                   ",
"                ..&&&&&...======.......OOOOOO.                  ",
"                ..%&&&.....====..........OOOO.                  ",
"                .......****........@@@@.......                  ",
"                ......******.......@@@@OOOO...                  ",
"                ..O$$*******$$$$$$.@#@OOOOOO.                   ",
"                ..O...$***@.....@**@#@OOOOOOO.                  ",
"                ..O....$*@.......**@$@OOOO....                  ",
"                ..OOO...$$.......**@$@OOOO++o.                  ",
"                ..O.@@.@$$$.$$$@.**@$@OOOO.o+.                  ",
"                 ...@..$$$$$@..$***$@$OOOO+o+.                  ",
"                 ...@.&@$$$$.=..***$@$OOOO+++.                  ",
"                  ..@..+$$$$....***$@$OOOO+++.                  ",
"                  .....++$$$....***$O$OOOO+++.                  ",
"                  .O.++++***....***$OO$OOO++.                   ",
"                  .O+++=+****@@@@**$XO$OOO+.                    ",
"                  ..++++.**********@XOOOOO.                     ",
"                  ..O...@******$$$$@XOOOOO.                     ",
"                  ..O@@@$***$OO@$$$..OOOOO.                     ",
"                  ...@@@O...@$$$$$...OOOOO.                     ",
"                  ....O$$$$$$$$$$....OOOOO.                     ",
"                  ......@$$$$$$@.++&&XXX..                      ",
"                   .......OOOOOO++=OOOOOOO.                     ",
"                     ...+######++=OOOOOO@@@.                    ",
"                   ....%+#####++=XXXOXXXXO@Oooo                 ",
"                  .....%========X@@@XXXXXXO@O%%o                ",
"                 ......XX======X@@@@XXXXX%%%%%%o                ",
"                 ....%%XXX...XX@@@@@..X.%%%%%%%.                ",
"                .....%%X@@===@@@@@@@..X.%%%%%%..                ",
"                .......X@@&=@@@@@@@@..X o%%%o...                ",
"                ...%%..X@@O@@@@@@@@@..X  ........               ",
"                ...%%. O@@O@@@@@@@@@..X o........               ",
"                 ....  O@O%@@@@@@@@@.XXo%%.......               ",
"                       O@OO@@@@@@@@@.XXo%%.......               ",
"                       .@O%@@@@@@@@@.XXX.........               ",
"                       .OOOO@@@@@@@.XXXX .......                ",
"                        oOO%O@@@@@@.XXXX %%....                 ",
"                         oOOOOOO@@.XXXXX %%                     ",
"                          oOOOOOOO.XXXXX                        ",
"                           oOOOOO.                              ",
"                            OOOO.o                              ",
"                           OOOO.ooo                             ",
"                        . $$OO. oooo%                           ",
"                        ..$$$.   oo%%                           ",
"                         ..$.    =%%.                           ",
"                          ..     ....                           "
};
