/* XPM */
static char *player_l_11647118905[] = {
/* columns rows colors chars-per-pixel */
"64 64 13 1 ",
"  c None",
". c black",
"X c #211A2E",
"o c #41243C",
"O c #6F322D",
"+ c #AF2C2C",
"@ c #955638",
"# c #DF7425",
"$ c #D8A162",
"% c #857F8A",
"& c #9BAFBA",
"* c #EFC39A",
"= c #CBDBFB",
/* pixels */
"                                                                ",
"                                                                ",
"                                                                ",
"                                                                ",
"                                                                ",
"                                                                ",
"                                                                ",
"                                                                ",
"                       @@@@@O@@@@@@@@                           ",
"                      @@@@$O@@@@@@@@@@                          ",
"                     @@@@$O@@@@@@@@@@@                          ",
"                     @@@@@O@@@@@@@@@@@O                         ",
"                    @@@@@@O@@@@@@@@@@@@O                        ",
"                   @@@@@@@O@@@@@@@@@@@@@.                       ",
"                   .oooo@O@@@oooo.@@@@@@O.                      ",
"                  .%%&&&.OO.====&..@@@@@OO.                     ",
"                 ..%&&&&&..=======..@@@@OOO.                    ",
"                 ..&&&&&&..=======%oo@@@OOOO.                   ",
"                 ..&&&&&&..&======%oo..@OOOOO.                  ",
"                 ..%&&&%...%&====&%oo....OOOOO.                 ",
"                 ..%%%%..OOO%&&&&%..o......OOO.                 ",
"                 ........***........@@@@O......                 ",
"                 .OOOOOO*****OOOOOO#@@@@OOO....                 ",
"                 .OO$@@*******$####O.#@@@OOOO.                  ",
"                 .OO....*****@.....@..#@@OOOOO.                 ",
"                 .Oo.OOOO$$$OOO...OO*..#@@OO+..                 ",
"                 .OoO@@@@@$$$OO@@@O@**.$@@OO++o                 ",
"                 .ooO$$**$$$$$***$****O$@@OO.o+.                ",
"                  .oo$***$$$$$***$****O$@@OO+o+.                ",
"                  .o.$**$$+$$$$**$****@$@OOO+++.                ",
"                   .O$**$++$$$$**$****@$OOOO+++.                ",
"                   .O*.O++++**@@@@***$@$OOOO+++.                ",
"                   .$*O++&++***@@@@**@$@OOOO++o                 ",
"                   .$*+++&+.*********@$@OOOO+o                  ",
"                   .@*#....@****$$$$*@$OOOOO.                   ",
"                   .@**O..O@**$OOO$$$@@OOOOO.                   ",
"                   ..@$$@O....O###$$@.OOOOOO                    ",
"                   ...@$$$###$$$$$$$..OOOOO.                    ",
"                   ....O$$$$$$$$$$@...OOOOO.                    ",
"                   ......@@#####@O.&&%OOOOO                     ",
"                   ......OOOOOO...#=..OOOO.                     ",
"                     .. .#######+%&.......                      ",
"                        %+####+++=&..@@O                        ",
"                       X%&=======&XX..O@@                       ",
"                       XX&======&XXXX..OO.                      ",
"                       XXX%%..XXOOXXX%%%%O                      ",
"                   %%  .OO===O@@@...%%%%%%o                     ",
"                  X&&oX.@OO&O@@@......O%%%%o                    ",
"                  X&%XXo@@OO@@@O........%%%o                    ",
"                X%XX...O@@%@@@@.&%.......%%o                    ",
"                %%X....O@OO@@@@.&&.......o%.                    ",
"                X%X....@@O%@@@@....%==.....                     ",
"                 oo....@@OO@@@@@....&&....                      ",
"                 .%X...@@O%@@@@@@.........                      ",
"                 .%X%..@@OO@@@@@@@...%&%..                      ",
"                 ..X%XX.@OO@@OO@@@...%&%.                       ",
"                   XXX ..OOOOOOO@@......                        ",
"                       ...oooooo@@...                           ",
"                        oo...   O@O..                           ",
"                        oooo.   OOOO.                           ",
"                         ooo.    OOOO                           ",
"                          %%%O   $$$O                           ",
"                          @%%O   $$@O                           ",
"                        XXXXXX   XXXX                           "
};
