/* XPM */
static char *player_r_71647118561[] = {
/* columns rows colors chars-per-pixel */
"64 64 13 1 ",
"  c None",
". c black",
"X c #211A2E",
"o c #41243C",
"O c #6F322D",
"+ c #AF2C2C",
"@ c #955638",
"# c #DF7425",
"$ c #D8A162",
"% c #857F8A",
"& c #9BAFBA",
"* c #EFC39A",
"= c #CBDBFB",
/* pixels */
"                                                                ",
"                                                                ",
"                                                                ",
"                                                                ",
"                                                                ",
"                                                                ",
"                                                                ",
"                                                                ",
"                            @@@@@@@O@@@@                        ",
"                           @@@@@@@@@O$@@@                       ",
"                          @@@@@@@@@@@O$@@@                      ",
"                         O@@@@@@@@@@@O@@@@@                     ",
"                        O@@@@@@@@@@@@O@@@@@@                    ",
"                       .@@@@@@@@@@@@@O@@@@@@@                   ",
"                      .O@@@@@@.oooo@@@O@oooo.                   ",
"                     .OO@@@@@..&===&.OO.&&&%%.                  ",
"                    .OOO@@@@..=======..&&&&&%..                 ",
"                   .OOOO@@@oo%=======..&&&&&&..                 ",
"                  .OOOOO@..oo%=======..&&&&&&..                 ",
"                 .OOOOO....oo%======%...&&&&&..                 ",
"                 .OOO......o..%====%OOO..&&&%..                 ",
"                 ......O@@@@........***........                 ",
"                 ....OOO@@@@#OOOOOO*****OOOOOO.                 ",
"                  .OOOO@@@#.O$$$$********@@$OO.                 ",
"                 .OOOOO@@#..@.....@*****@...OO.                 ",
"                 ..+OO@@#..*OO...OOO$$$@....oO.                 ",
"                 o++OO@@$.**@O@@@OO$$$@@@@@OoO.                 ",
"                .+o.OO@@$O****@OO@$$$$$@O@$Ooo.                 ",
"                .+o+OO@@$O****O.%O$$$$$@%O$oo.                  ",
"                .+++OOO@$@****..&.$$$+$@&.$.o.                  ",
"                .+++OOOO$@****....$$$++$..$O.                   ",
"                .+++OOOO$@$***....**++++..*O.                   ",
"                 o++OOOO@$@**@@@@***++&++.*$.                   ",
"                  o+OOOO@$@*********.+=+++*$.                   ",
"                   .OOOOO$@*$$$$****@....+*$.                   ",
"                   .OOOOO@@$$$OOO$**@O..O**@.                   ",
"                    OOOOOO.@$$###O....O@$$$..                   ",
"                    .OOOOO..$$$$$$$###$$$$...                   ",
"                    .OOOOO...@$$$$$$$$$$@....                   ",
"                     OOOOO%&&.O@#####@@......                   ",
"                     .OOOO..=#...OOOOOO......                   ",
"                      .......&%+#######. ..                     ",
"                        O@@..&=+++####+%                        ",
"                       @@O..XX&=======&%X                       ",
"                      .OO..XXXX&======&XX                       ",
"                      O%%%%XXXOOXX..%%XXX                       ",
"                     o%%%%%%...@@@O===OO.  %%                   ",
"                    o%%%%O......@@@O&OO@.Xo&&X                  ",
"                    o%%%........O@@@OO@@oXX&&X                  ",
"                    o%%.......%&.@@@@%@@O...XX%                 ",
"                    .%o.......&&.@@@@OO@O....%%o                ",
"                     .....==%....@@@@%O@@....%%X                ",
"                      ....&&....@@@@@OO@@....oo                 ",
"                      .........@@@@@@%O@@...X%.                 ",
"                      ..%&%...@@@@@@@OO@@..%X%.                 ",
"                       .%&%...@@@OO@@OO@.XX%X..                 ",
"                        ......@@OOOOOOO.. XXX                   ",
"                           ...@@oooooo...                       ",
"                           ..O@O   ...oo                        ",
"                           .OOOO   .oooo                        ",
"                           OOOO    .ooo                         ",
"                           O$$$   O%%%                          ",
"                           O@$$   O%%@                          ",
"                           XXXX   XXXXXX                        "
};
