/* XPM */
static char *player11646669784[] = {
/* columns rows colors chars-per-pixel */
"64 64 13 1 ",
"  c None",
". c black",
"X c #211A2E",
"o c #41243C",
"O c #6F322D",
"+ c #AF2C2C",
"@ c #955638",
"# c #DF7425",
"$ c #D8A162",
"% c #857F8A",
"& c #9BAFBA",
"* c #EFC39A",
"= c #CBDBFB",
/* pixels */
"                                                                ",
"                                                                ",
"                                                                ",
"                                                                ",
"                                                                ",
"                                                                ",
"                                                                ",
"                                                                ",
"                              @@@@@@@O@@                        ",
"                            @@@@@@@@@@O$@                       ",
"                           @@@@@@@@@@@@O$@                      ",
"                          @@@@@@@@@@@@@O@@@                     ",
"                         .@@@@@@@@@@@@@O@@@@                    ",
"                        .@@@@@@@@@@@@@@@O@@@@                   ",
"                       .@@@@@@@@.....@@@O....                   ",
"                      .O@@@@@@@..====&OO..&&%.                  ",
"                     .OOO@@@@@..======&..&&&&%.                 ",
"                    .OOOO@@@@...=======..&&&&&.                 ",
"                   .OOOOO@@.....=======..&&&&&..                ",
"                  .OOOOOO.......======...&&&&&..                ",
"                  .OOOO..........====.....&&&%..                ",
"                  .......@@@@........****.......                ",
"                  ...OOOO@@@@.......******......                ",
"                   .OOOOOO@#@.$$$$$$*******$$O..                ",
"                  .OOOOOOO@#@**@.....@***$...O..                ",
"                  ....OOOO@$@**.......@*$....O..                ",
"                  .o++OOOO@$@**.......$$...OOO..                ",
"                  .+o.OOOO@$@**.@$$$.$$$@.@@.O..                ",
"                  .+o+OOOO$@$***$..@$$$$$..@...                 ",
"                  .+++OOOO$@$***..=.$$$$@&.@...                 ",
"                  .+++OOOO$@$***....$$$$+..@..                  ",
"                  .+++OOOO$O$***....$$$++.....                  ",
"                   .++OOO$OO$***....***++++.O.                  ",
"                    .+OOO$OX$**@@@@****+=+++O.                  ",
"                     .OOOOOX@**********.++++..                  ",
"                     .OOOOOX@$$$$******@...O..                  ",
"                     .OOOOO..$$$@OO$***$@@@O..                  ",
"                     .OOOOO...$$$$$@...O@@@...                  ",
"                     .OOOOO....$$$$$$$$$$O....                  ",
"                      ..XXX&&++.@$$$$$$@......                  ",
"                     .OOOOOOO=++OOOOOO.......                   ",
"                    .@@@OOOOOO=++######+...                     ",
"                 oooO@OXXXXOXXX=++#####+%....                   ",
"                o%%O@OXXXXXX@@@X========%.....                  ",
"                o%%%%%%XXXXX@@@@X======XX......                 ",
"                .%%%%%%%.X..@@@@@XX...XXX%%....                 ",
"                ..%%%%%%.X..@@@@@@@===@@X%%.....                ",
"                ...o%%%o X..@@@@@@@@=&@@X.......                ",
"               ........  X..@@@@@@@@@O@@X..%%...                ",
"               ........o X..@@@@@@@@@O@@O .%%...                ",
"               .......%%oXX.@@@@@@@@@%O@O  ....                 ",
"               .......%%oXX.@@@@@@@@@OO@O                       ",
"               .........XXX.@@@@@@@@@%O@.                       ",
"                ....... XXXX.@@@@@@@OOOO.                       ",
"                 ....%% XXXX.@@@@@@O%OOo                        ",
"                     %% XXXXX.@@OOOOOOo                         ",
"                        XXXXX.OOOOOOOo                          ",
"                              .OOOOOo                           ",
"                              o.OOOO                            ",
"                             ooo.OOOO                           ",
"                           %oooo .OO$$ .                        ",
"                           %%oo   .$$$..                        ",
"                           .%%=    .$..                         ",
"                           ....     ..                          "
};
